<?xml version="1.0" encoding="UTF-8" standalone="no"?>
<!DOCTYPE svg PUBLIC "-//W3C//DTD SVG 1.1//EN" "http://www.w3.org/Graphics/SVG/1.1/DTD/svg11.dtd">
<!-- Created with Vectornator (http://vectornator.io/) -->
<svg height="100%" stroke-miterlimit="10" style="fill-rule:nonzero;clip-rule:evenodd;stroke-linecap:round;stroke-linejoin:round;" version="1.1" viewBox="0 0 244.175 75.558" width="100%" xml:space="preserve" xmlns="http://www.w3.org/2000/svg" xmlns:vectornator="http://vectornator.io" xmlns:xlink="http://www.w3.org/1999/xlink">
<defs/>
<clipPath id="ArtboardFrame">
<rect height="75.558" width="244.175" x="0" y="0"/>
</clipPath>
<g clip-path="url(#ArtboardFrame)" id="Capa_3" vectornator:layerName="Capa_3">
<path d="M0.544005-0.54228L246.867-0.54228L246.867-0.54228L246.867 76.4107L0.544005 76.4107L0.544005 76.4107L0.544005-0.54228L0.544005-0.54228Z" fill="#000000" fill-rule="nonzero" opacity="1" stroke="none"/>
<g opacity="1">
<g opacity="1">
<clipPath id="ClipPath">
<path d="M-2.96804-1.23157L244.355-1.23157L244.355-1.23157L244.355 76.7214L244.355 76.7214L-2.96804 76.7214L-2.96804 76.7214L-2.96804-1.23157L-2.96804-1.23157Z"/>
</clipPath>
<g clip-path="url(#ClipPath)">
<path d="M-2.46804-0.731568L243.855-0.731568L243.855-0.731568L243.855 76.2214L243.855 76.2214L-2.46804 76.2214L-2.46804 76.2214L-2.46804-0.731568L-2.46804-0.731568Z" fill="none" opacity="1" stroke="#000000" stroke-linecap="butt" stroke-linejoin="miter" stroke-width="1"/>
</g>
</g>
<g opacity="1">
<clipPath id="ClipPath_2">
<path d="M-2.96804-1.23157L244.355-1.23157L244.355-1.23157L244.355 76.7214L244.355 76.7214L-2.96804 76.7214L-2.96804 76.7214L-2.96804-1.23157L-2.96804-1.23157Z"/>
</clipPath>
<g clip-path="url(#ClipPath_2)">
<path d="M46.189 42.8394C45.595 42.2614 44.884 41.9724 44.056 41.9724C43.087 41.9724 42.384 42.2574 41.947 42.8274C41.509 43.3984 41.142 44.1364 40.845 45.0424C40.142 46.9644 39.099 48.4214 37.716 49.4134C36.334 50.4064 34.642 50.9024 32.642 50.9024C30.798 50.9024 29.189 50.4644 27.814 49.5894C26.439 48.7144 25.377 47.3904 24.627 45.6164C23.877 43.8434 23.502 41.6204 23.502 38.9484C23.502 34.9494 24.349 31.8634 26.044 29.6914C27.74 27.5194 30.017 26.4334 32.876 26.4334C34.673 26.4334 36.185 26.8554 37.412 27.6984C38.638 28.5424 39.705 29.8164 40.611 31.5194C41.158 32.5504 41.654 33.2764 42.099 33.6984C42.544 34.1204 43.212 34.3314 44.103 34.3314C44.9 34.3314 45.58 34.0264 46.142 33.4174C46.705 32.8084 46.986 32.1054 46.986 31.3084C46.986 29.8554 46.408 28.3124 45.252 26.6794C44.095 25.0464 42.431 23.6754 40.259 22.5664C38.087 21.4564 35.611 20.9024 32.83 20.9024C30.548 20.9024 28.4 21.3084 26.384 22.1204C24.369 22.9334 22.611 24.1164 21.111 25.6714C19.611 27.2264 18.458 29.0974 17.654 31.2844C16.849 33.4724 16.447 35.9484 16.447 38.7144C16.447 40.4174 16.607 42.0274 16.927 43.5424C17.247 45.0584 17.728 46.4844 18.369 47.8194C19.009 49.1554 19.783 50.3624 20.689 51.4414C21.705 52.6284 22.818 53.5854 24.029 54.3124C25.24 55.0384 26.587 55.5744 28.072 55.9174C29.556 56.2614 31.204 56.4334 33.017 56.4334C35.408 56.4334 37.501 56.0504 39.298 55.2844C41.095 54.5194 42.572 53.5234 43.728 52.2964C44.884 51.0704 45.732 49.8204 46.271 48.5464C46.81 47.2734 47.08 46.0894 47.08 44.9954C47.08 44.1374 46.783 43.4184 46.189 42.8394" fill="#ffffff" fill-rule="nonzero" opacity="1" stroke="none"/>
</g>
</g>
<g opacity="1">
<clipPath id="ClipPath_3">
<path d="M-2.96804-1.23157L244.355-1.23157L244.355-1.23157L244.355 76.7214L244.355 76.7214L-2.96804 76.7214L-2.96804 76.7214L-2.96804-1.23157L-2.96804-1.23157Z"/>
</clipPath>
<g clip-path="url(#ClipPath_3)">
<path d="M46.189 42.8394C45.595 42.2614 44.884 41.9724 44.056 41.9724C43.087 41.9724 42.384 42.2574 41.947 42.8274C41.509 43.3984 41.142 44.1364 40.845 45.0424C40.142 46.9644 39.099 48.4214 37.716 49.4134C36.334 50.4064 34.642 50.9024 32.642 50.9024C30.798 50.9024 29.189 50.4644 27.814 49.5894C26.439 48.7144 25.377 47.3904 24.627 45.6164C23.877 43.8434 23.502 41.6204 23.502 38.9484C23.502 34.9494 24.349 31.8634 26.044 29.6914C27.74 27.5194 30.017 26.4334 32.876 26.4334C34.673 26.4334 36.185 26.8554 37.412 27.6984C38.638 28.5424 39.705 29.8164 40.611 31.5194C41.158 32.5504 41.654 33.2764 42.099 33.6984C42.544 34.1204 43.212 34.3314 44.103 34.3314C44.9 34.3314 45.58 34.0264 46.142 33.4174C46.705 32.8084 46.986 32.1054 46.986 31.3084C46.986 29.8554 46.408 28.3124 45.252 26.6794C44.095 25.0464 42.431 23.6754 40.259 22.5664C38.087 21.4564 35.611 20.9024 32.83 20.9024C30.548 20.9024 28.4 21.3084 26.384 22.1204C24.369 22.9334 22.611 24.1164 21.111 25.6714C19.611 27.2264 18.458 29.0974 17.654 31.2844C16.849 33.4724 16.447 35.9484 16.447 38.7144C16.447 40.4174 16.607 42.0274 16.927 43.5424C17.247 45.0584 17.728 46.4844 18.369 47.8194C19.009 49.1554 19.783 50.3624 20.689 51.4414C21.705 52.6284 22.818 53.5854 24.029 54.3124C25.24 55.0384 26.587 55.5744 28.072 55.9174C29.556 56.2614 31.204 56.4334 33.017 56.4334C35.408 56.4334 37.501 56.0504 39.298 55.2844C41.095 54.5194 42.572 53.5234 43.728 52.2964C44.884 51.0704 45.732 49.8204 46.271 48.5464C46.81 47.2734 47.08 46.0894 47.08 44.9954C47.08 44.1374 46.783 43.4184 46.189 42.8394Z" fill="none" opacity="1" stroke="#ffffff" stroke-linecap="butt" stroke-linejoin="miter" stroke-width="1.2"/>
</g>
</g>
<g opacity="1">
<clipPath id="ClipPath_4">
<path d="M-2.96804-1.23157L244.355-1.23157L244.355-1.23157L244.355 76.7214L244.355 76.7214L-2.96804 76.7214L-2.96804 76.7214L-2.96804-1.23157L-2.96804-1.23157Z"/>
</clipPath>
<g clip-path="url(#ClipPath_4)">
<path d="M60.082 21.6134C59.433 20.9064 58.586 20.5514 57.539 20.5514C56.476 20.5514 55.637 20.9094 55.02 21.6254C54.402 22.3414 54.094 23.4144 54.094 24.8454L54.094 52.3994C54.094 53.8304 54.406 54.9084 55.031 55.6314C55.656 56.3554 56.492 56.7174 57.539 56.7174C58.57 56.7174 59.414 56.3594 60.07 55.6434C60.727 54.9274 61.055 53.8464 61.055 52.3994L61.055 40.6384L76.078 40.6384L76.078 52.3994C76.078 53.8304 76.39 54.9084 77.016 55.6314C77.64 56.3554 78.476 56.7174 79.523 56.7174C80.555 56.7174 81.398 56.3594 82.055 55.6434C82.711 54.9274 83.039 53.8464 83.039 52.3994L83.039 24.8454C83.039 23.3984 82.715 22.3214 82.066 21.6134C81.418 20.9064 80.57 20.5514 79.523 20.5514C78.492 20.5514 77.66 20.9094 77.027 21.6254C76.394 22.3414 76.078 23.4144 76.078 24.8454L76.078 34.8654L61.055 34.8654L61.055 24.8454C61.055 23.3984 60.73 22.3214 60.082 21.6134" fill="#ffffff" fill-rule="nonzero" opacity="1" stroke="none"/>
</g>
</g>
<g opacity="1">
<clipPath id="ClipPath_5">
<path d="M-2.96804-1.23157L244.355-1.23157L244.355-1.23157L244.355 76.7214L244.355 76.7214L-2.96804 76.7214L-2.96804 76.7214L-2.96804-1.23157L-2.96804-1.23157Z"/>
</clipPath>
<g clip-path="url(#ClipPath_5)">
<path d="M60.082 21.6134C59.433 20.9064 58.586 20.5514 57.539 20.5514C56.476 20.5514 55.637 20.9094 55.02 21.6254C54.402 22.3414 54.094 23.4144 54.094 24.8454L54.094 52.3994C54.094 53.8304 54.406 54.9084 55.031 55.6314C55.656 56.3554 56.492 56.7174 57.539 56.7174C58.57 56.7174 59.414 56.3594 60.07 55.6434C60.727 54.9274 61.055 53.8464 61.055 52.3994L61.055 40.6384L76.078 40.6384L76.078 52.3994C76.078 53.8304 76.39 54.9084 77.016 55.6314C77.64 56.3554 78.476 56.7174 79.523 56.7174C80.555 56.7174 81.398 56.3594 82.055 55.6434C82.711 54.9274 83.039 53.8464 83.039 52.3994L83.039 24.8454C83.039 23.3984 82.715 22.3214 82.066 21.6134C81.418 20.9064 80.57 20.5514 79.523 20.5514C78.492 20.5514 77.66 20.9094 77.027 21.6254C76.394 22.3414 76.078 23.4144 76.078 24.8454L76.078 34.8654L61.055 34.8654L61.055 24.8454C61.055 23.3984 60.73 22.3214 60.082 21.6134Z" fill="none" opacity="1" stroke="#ffffff" stroke-linecap="butt" stroke-linejoin="miter" stroke-width="1.1"/>
</g>
</g>
<g opacity="1">
<clipPath id="ClipPath_6">
<path d="M-2.96804-1.23157L244.355-1.23157L244.355-1.23157L244.355 76.7214L244.355 76.7214L-2.96804 76.7214L-2.96804 76.7214L-2.96804-1.23157L-2.96804-1.23157Z"/>
</clipPath>
<g clip-path="url(#ClipPath_6)">
<path d="M103.964 25.8694L111.02 25.8694C112.268 25.8694 113.42 25.2514 113.42 23.6604C113.42 22.0704 112.268 21.4524 111.02 21.4524L92.108 21.4524C90.86 21.4524 89.708 22.0704 89.708 23.6604C89.708 25.2514 90.86 25.8694 92.108 25.8694L99.164 25.8694L99.164 51.4004L92.108 51.4004C90.86 51.4004 89.708 52.0184 89.708 53.6084C89.708 55.1994 90.86 55.8174 92.108 55.8174L111.02 55.8174C112.268 55.8174 113.42 55.1994 113.42 53.6084C113.42 52.0184 112.268 51.4004 111.02 51.4004L103.964 51.4004L103.964 25.8694Z" fill="#ffffff" fill-rule="nonzero" opacity="1" stroke="none"/>
</g>
</g>
<g opacity="1">
<clipPath id="ClipPath_7">
<path d="M-2.96804-1.23157L244.355-1.23157L244.355-1.23157L244.355 76.7214L244.355 76.7214L-2.96804 76.7214L-2.96804 76.7214L-2.96804-1.23157L-2.96804-1.23157Z"/>
</clipPath>
<g clip-path="url(#ClipPath_7)">
<path d="M103.964 25.8694L111.02 25.8694C112.268 25.8694 113.42 25.2514 113.42 23.6604C113.42 22.0704 112.268 21.4524 111.02 21.4524L92.108 21.4524C90.86 21.4524 89.708 22.0704 89.708 23.6604C89.708 25.2514 90.86 25.8694 92.108 25.8694L99.164 25.8694L99.164 51.4004L92.108 51.4004C90.86 51.4004 89.708 52.0184 89.708 53.6084C89.708 55.1994 90.86 55.8174 92.108 55.8174L111.02 55.8174C112.268 55.8174 113.42 55.1994 113.42 53.6084C113.42 52.0184 112.268 51.4004 111.02 51.4004L103.964 51.4004L103.964 25.8694Z" fill="none" opacity="1" stroke="#ffffff" stroke-linecap="butt" stroke-linejoin="miter" stroke-width="2.8"/>
</g>
</g>
<g opacity="1">
<clipPath id="ClipPath_8">
<path d="M-2.96804-1.23157L244.355-1.23157L244.355-1.23157L244.355 76.7214L244.355 76.7214L-2.96804 76.7214L-2.96804 76.7214L-2.96804-1.23157L-2.96804-1.23157Z"/>
</clipPath>
<g clip-path="url(#ClipPath_8)">
<path d="M199.569 53.5834C199.569 54.5874 199.846 55.3524 200.401 55.8794C200.955 56.4054 201.655 56.6684 202.499 56.6684C203.045 56.6684 203.522 56.5804 203.928 56.4054C204.335 56.2294 204.686 55.9904 204.983 55.6874C205.28 55.3854 205.534 55.0744 205.745 54.7554C205.956 54.4364 206.311 53.8784 206.811 53.0814L213.233 43.0864L219.28 52.7944C220.045 53.9894 220.569 54.7954 220.85 55.2094C221.131 55.6244 221.498 55.9704 221.952 56.2494C222.405 56.5284 222.96 56.6684 223.616 56.6684C224.225 56.6684 224.772 56.5324 225.256 56.2614C225.741 55.9904 226.116 55.6244 226.381 55.1614C226.647 54.6994 226.78 54.1894 226.78 53.6314C226.78 53.0414 226.631 52.4154 226.335 51.7544C226.038 51.0924 225.561 50.2594 224.905 49.2554L217.616 37.8014L224.389 27.4714C225.592 25.6384 226.194 24.1884 226.194 23.1194C226.194 22.3864 225.916 21.7534 225.362 21.2194C224.807 20.6854 224.092 20.4174 223.217 20.4174C222.733 20.4174 222.307 20.5014 221.94 20.6694C221.573 20.8364 221.241 21.0874 220.944 21.4224C220.647 21.7574 220.338 22.1794 220.018 22.6894C219.698 23.1994 219.311 23.8134 218.858 24.5304L213.35 33.0434L208.194 24.5304C207.241 22.9524 206.495 21.8724 205.956 21.2904C205.417 20.7094 204.663 20.4174 203.694 20.4174C202.85 20.4174 202.135 20.6854 201.549 21.2194C200.964 21.7534 200.671 22.3544 200.671 23.0244C200.671 23.6784 200.823 24.3594 201.128 25.0684C201.432 25.7784 201.889 26.6274 202.499 27.6154L208.967 37.8014L201.28 49.2554C200.139 50.9614 199.569 52.4034 199.569 53.5834" fill="#ffffff" fill-rule="nonzero" opacity="1" stroke="none"/>
</g>
</g>
<g opacity="1">
<clipPath id="ClipPath_9">
<path d="M-2.96804-1.23157L244.355-1.23157L244.355-1.23157L244.355 76.7214L244.355 76.7214L-2.96804 76.7214L-2.96804 76.7214L-2.96804-1.23157L-2.96804-1.23157Z"/>
</clipPath>
<g clip-path="url(#ClipPath_9)">
<path d="M199.569 53.5834C199.569 54.5874 199.846 55.3524 200.401 55.8794C200.955 56.4054 201.655 56.6684 202.499 56.6684C203.045 56.6684 203.522 56.5804 203.928 56.4054C204.335 56.2294 204.686 55.9904 204.983 55.6874C205.28 55.3854 205.534 55.0744 205.745 54.7554C205.956 54.4364 206.311 53.8784 206.811 53.0814L213.233 43.0864L219.28 52.7944C220.045 53.9894 220.569 54.7954 220.85 55.2094C221.131 55.6244 221.498 55.9704 221.952 56.2494C222.405 56.5284 222.96 56.6684 223.616 56.6684C224.225 56.6684 224.772 56.5324 225.256 56.2614C225.741 55.9904 226.116 55.6244 226.381 55.1614C226.647 54.6994 226.78 54.1894 226.78 53.6314C226.78 53.0414 226.631 52.4154 226.335 51.7544C226.038 51.0924 225.561 50.2594 224.905 49.2554L217.616 37.8014L224.389 27.4714C225.592 25.6384 226.194 24.1884 226.194 23.1194C226.194 22.3864 225.916 21.7534 225.362 21.2194C224.807 20.6854 224.092 20.4174 223.217 20.4174C222.733 20.4174 222.307 20.5014 221.94 20.6694C221.573 20.8364 221.241 21.0874 220.944 21.4224C220.647 21.7574 220.338 22.1794 220.018 22.6894C219.698 23.1994 219.311 23.8134 218.858 24.5304L213.35 33.0434L208.194 24.5304C207.241 22.9524 206.495 21.8724 205.956 21.2904C205.417 20.7094 204.663 20.4174 203.694 20.4174C202.85 20.4174 202.135 20.6854 201.549 21.2194C200.964 21.7534 200.671 22.3544 200.671 23.0244C200.671 23.6784 200.823 24.3594 201.128 25.0684C201.432 25.7784 201.889 26.6274 202.499 27.6154L208.967 37.8014L201.28 49.2554C200.139 50.9614 199.569 52.4034 199.569 53.5834Z" fill="none" opacity="1" stroke="#ffffff" stroke-linecap="butt" stroke-linejoin="miter" stroke-width="1.1"/>
</g>
</g>
<g opacity="1">
<clipPath id="ClipPath_10">
<path d="M-2.96804-1.23157L244.355-1.23157L244.355-1.23157L244.355 76.7214L244.355 76.7214L-2.96804 76.7214L-2.96804 76.7214L-2.96804-1.23157L-2.96804-1.23157Z"/>
</clipPath>
<g clip-path="url(#ClipPath_10)">
<path d="M126.714 21.6774C126.099 20.9604 125.296 20.6014 124.304 20.6014C123.327 20.6014 122.538 20.9634 121.938 21.6894C121.339 22.4154 121.039 23.5034 121.039 24.9554L121.039 52.2654C121.039 53.8134 121.353 54.9344 121.983 55.6274C122.612 56.3214 123.645 56.6674 125.081 56.6674L134.142 56.6674C135.223 56.6674 136.045 56.3984 136.607 55.8574C137.17 55.3174 137.452 54.6114 137.452 53.7414C137.452 52.8864 137.166 52.1764 136.596 51.6124C136.026 51.0484 135.208 50.7654 134.142 50.7654L127.636 50.7654L127.636 24.9554C127.636 23.4874 127.328 22.3954 126.714 21.6774" fill="#ffffff" fill-rule="nonzero" opacity="1" stroke="none"/>
</g>
</g>
<g opacity="1">
<clipPath id="ClipPath_11">
<path d="M-2.96804-1.23157L244.355-1.23157L244.355-1.23157L244.355 76.7214L244.355 76.7214L-2.96804 76.7214L-2.96804 76.7214L-2.96804-1.23157L-2.96804-1.23157Z"/>
</clipPath>
<g clip-path="url(#ClipPath_11)">
<path d="M126.714 21.6774C126.099 20.9604 125.296 20.6014 124.304 20.6014C123.327 20.6014 122.538 20.9634 121.938 21.6894C121.339 22.4154 121.039 23.5034 121.039 24.9554L121.039 52.2654C121.039 53.8134 121.353 54.9344 121.983 55.6274C122.612 56.3214 123.645 56.6674 125.081 56.6674L134.142 56.6674C135.223 56.6674 136.045 56.3984 136.607 55.8574C137.17 55.3174 137.452 54.6114 137.452 53.7414C137.452 52.8864 137.166 52.1764 136.596 51.6124C136.026 51.0484 135.208 50.7654 134.142 50.7654L127.636 50.7654L127.636 24.9554C127.636 23.4874 127.328 22.3954 126.714 21.6774Z" fill="none" opacity="1" stroke="#ffffff" stroke-linecap="butt" stroke-linejoin="miter" stroke-width="1.1"/>
</g>
</g>
<g opacity="1">
<clipPath id="ClipPath_12">
<path d="M-2.96804-1.23157L244.355-1.23157L244.355-1.23157L244.355 76.7214L244.355 76.7214L-2.96804 76.7214L-2.96804 76.7214L-2.96804-1.23157L-2.96804-1.23157Z"/>
</clipPath>
<g clip-path="url(#ClipPath_12)">
<path d="M149.896 21.8374C149.281 21.1204 148.478 20.7614 147.486 20.7614C146.509 20.7614 145.72 21.1234 145.12 21.8494C144.521 22.5754 144.221 23.6634 144.221 25.1154L144.221 52.4254C144.221 53.9734 144.535 55.0944 145.165 55.7874C145.794 56.4814 146.827 56.8274 148.263 56.8274L157.324 56.8274C158.405 56.8274 159.227 56.5584 159.789 56.0174C160.352 55.4774 160.634 54.7714 160.634 53.9014C160.634 53.0464 160.348 52.3374 159.778 51.7724C159.208 51.2084 158.39 50.9254 157.324 50.9254L150.818 50.9254L150.818 25.1154C150.818 23.6474 150.51 22.5554 149.896 21.8374" fill="#ffffff" fill-rule="nonzero" opacity="1" stroke="none"/>
</g>
</g>
<g opacity="1">
<clipPath id="ClipPath_13">
<path d="M-2.96804-1.23157L244.355-1.23157L244.355-1.23157L244.355 76.7214L244.355 76.7214L-2.96804 76.7214L-2.96804 76.7214L-2.96804-1.23157L-2.96804-1.23157Z"/>
</clipPath>
<g clip-path="url(#ClipPath_13)">
<path d="M149.896 21.8374C149.281 21.1204 148.478 20.7614 147.486 20.7614C146.509 20.7614 145.72 21.1234 145.12 21.8494C144.521 22.5754 144.221 23.6634 144.221 25.1154L144.221 52.4254C144.221 53.9734 144.535 55.0944 145.165 55.7874C145.794 56.4814 146.827 56.8274 148.263 56.8274L157.324 56.8274C158.405 56.8274 159.227 56.5584 159.789 56.0174C160.352 55.4774 160.634 54.7714 160.634 53.9014C160.634 53.0464 160.348 52.3374 159.778 51.7724C159.208 51.2084 158.39 50.9254 157.324 50.9254L150.818 50.9254L150.818 25.1154C150.818 23.6474 150.51 22.5554 149.896 21.8374Z" fill="none" opacity="1" stroke="#ffffff" stroke-linecap="butt" stroke-linejoin="miter" stroke-width="1.1"/>
</g>
</g>
<g opacity="1">
<clipPath id="ClipPath_14">
<path d="M-2.96804-1.23157L244.355-1.23157L244.355-1.23157L244.355 76.7214L244.355 76.7214L-2.96804 76.7214L-2.96804 76.7214L-2.96804-1.23157L-2.96804-1.23157Z"/>
</clipPath>
<g clip-path="url(#ClipPath_14)">
<path d="M166.855 52.4984L166.855 26.0864C166.855 26.0864 166.528 17.5364 174.452 21.0214L188.421 29.3534L199.094 35.9434C199.094 35.9434 203.832 39.8644 198.495 43.8944L184.472 51.5454L174.098 56.7734L172.083 57.3994C172.083 57.3994 167.236 57.6724 166.855 52.4984" fill="#b41c10" fill-rule="nonzero" opacity="1" stroke="none"/>
</g>
</g>
</g>
</g>
</svg>
