<?xml version="1.0" encoding="utf-8"?>
<!-- Generator: Adobe Illustrator 17.0.1, SVG Export Plug-In . SVG Version: 6.00 Build 0)  -->
<!DOCTYPE svg PUBLIC "-//W3C//DTD SVG 1.1//EN" "http://www.w3.org/Graphics/SVG/1.1/DTD/svg11.dtd">
<svg version="1.1" id="Capa_1" xmlns="http://www.w3.org/2000/svg" xmlns:xlink="http://www.w3.org/1999/xlink" x="0px" y="0px"
	 width="46.5px" height="32.75px" viewBox="0 0 46.5 32.75" enable-background="new 0 0 46.5 32.75" xml:space="preserve">
<g>
	<defs>
		<rect id="SVGID_1_" x="2.482" y="4.685" width="16.444" height="24.854"/>
	</defs>
	<clipPath id="SVGID_2_">
		<use xlink:href="#SVGID_1_"  overflow="visible"/>
	</clipPath>
	<path clip-path="url(#SVGID_2_)" fill="#70C059" d="M14.133,27.891c0.415,0.459,0.943,0.689,1.583,0.689
		c0.669,0,1.212-0.227,1.628-0.681c0.415-0.454,0.622-1.14,0.622-2.058V8.369c0-0.918-0.207-1.601-0.622-2.05
		c-0.415-0.449-0.958-0.673-1.628-0.673c-0.65,0-1.18,0.227-1.59,0.681c-0.41,0.454-0.615,1.134-0.615,2.042v17.473
		C13.511,26.749,13.719,27.432,14.133,27.891 M4.065,27.891C4.48,28.35,5.008,28.58,5.648,28.58c0.669,0,1.212-0.227,1.628-0.681
		c0.415-0.454,0.622-1.14,0.622-2.058V8.369c0-0.918-0.207-1.601-0.622-2.05C6.86,5.87,6.317,5.646,5.648,5.646
		c-0.65,0-1.18,0.227-1.59,0.681C3.647,6.78,3.442,7.461,3.442,8.369v17.473C3.442,26.749,3.65,27.432,4.065,27.891"/>
	<path clip-path="url(#SVGID_2_)" fill="none" stroke="#70C059" stroke-width="3" d="M14.133,27.891
		c0.415,0.459,0.943,0.689,1.583,0.689c0.669,0,1.212-0.227,1.628-0.681c0.415-0.454,0.622-1.14,0.622-2.058V8.369
		c0-0.918-0.207-1.601-0.622-2.05c-0.415-0.449-0.958-0.673-1.628-0.673c-0.65,0-1.18,0.227-1.59,0.681
		c-0.41,0.454-0.615,1.134-0.615,2.042v17.473C13.511,26.749,13.719,27.432,14.133,27.891z M4.065,27.891
		C4.48,28.35,5.008,28.58,5.648,28.58c0.669,0,1.212-0.227,1.628-0.681c0.415-0.454,0.622-1.14,0.622-2.058V8.369
		c0-0.918-0.207-1.601-0.622-2.05C6.86,5.87,6.317,5.646,5.648,5.646c-0.65,0-1.18,0.227-1.59,0.681
		C3.647,6.78,3.442,7.461,3.442,8.369v17.473C3.442,26.749,3.65,27.432,4.065,27.891z"/>
</g>
<g>
	<defs>
		<rect id="SVGID_3_" x="22.322" y="5.721" width="21.875" height="23.818"/>
	</defs>
	<clipPath id="SVGID_4_">
		<use xlink:href="#SVGID_3_"  overflow="visible"/>
	</clipPath>
	<path clip-path="url(#SVGID_4_)" fill="#B41C10" d="M22.324,26.401V9.498c0,0-0.209-5.472,4.862-3.242l8.94,5.332l6.831,4.218
		c0,0,3.032,2.509-0.383,5.089l-8.975,4.897l-6.639,3.346l-1.29,0.401C25.67,29.538,22.567,29.713,22.324,26.401"/>
</g>
</svg>
