<?xml version="1.0" encoding="utf-8"?>
<!-- Generator: Adobe Illustrator 17.0.1, SVG Export Plug-In . SVG Version: 6.00 Build 0)  -->
<!DOCTYPE svg PUBLIC "-//W3C//DTD SVG 1.0//EN" "http://www.w3.org/TR/2001/REC-SVG-20010904/DTD/svg10.dtd">
<svg version="1.0" xmlns="http://www.w3.org/2000/svg" xmlns:xlink="http://www.w3.org/1999/xlink" x="0px" y="0px"
	 width="594.333px" height="617px" viewBox="0 0 594.333 617" enable-background="new 0 0 594.333 617" xml:space="preserve">
<g id="Capa_2" display="none">
	<g display="inline">
		<g>
			<path d="M144.321,6.536c-29.17-7.358-66.408,4.598-77.265,34.735c-8.213,22.799-16.426,45.598-24.64,68.397
				c-9.648,26.782-19.297,53.565-28.945,80.347c-9.297,25.807-14.458,54.461-5.857,81.245c2.928,9.119,8.346,16.822,13.285,24.926
				c7.926,13.004,15.853,26.008,23.779,39.012c10.45,17.145,21.592,34.043,31.354,51.59c6.606,11.874,16.698,21.894,27.962,29.337
				c8.357,5.522,18.247,9.273,28.118,10.856c6.147,0.986,12.233,1.45,18.447,1.103c4.24-0.237,9.16-0.374,13.159-1.758
				c24.221-8.384,48.442-16.768,72.663-25.153c19.381-6.709,37.87-12.625,55.454-23.406c19.965-12.241,38.316-27.93,50.995-47.794
				c3.895-6.103,5.889-13.971,8.358-20.717c16.878-46.113,33.767-92.222,50.634-138.339c4.564-12.479,4.888-26.368,3.048-39.356
				c-2.598-18.338-16.272-37.86-34.06-44.207c-16.544-5.903-33.088-11.807-49.632-17.71
				C266.461,50.119,211.744,30.594,157.027,11.07C152.792,9.558,148.556,8.047,144.321,6.536
				c-7.706-2.75-16.405,3.036-18.452,10.477c-2.29,8.326,2.783,15.707,10.477,18.452c43.769,15.618,87.537,31.236,131.306,46.854
				c26,9.277,51.999,18.555,77.999,27.832c5.655,2.018,11.309,4.035,16.964,6.053c1.346,0.48,0.863,0.95-1.6-0.509
				c1.208,0.716,2.358,1.523,3.504,2.331c-2.562-1.805,0.78,0.726,1.074,0.985c0.942,0.831,1.814,1.738,2.684,2.643
				c0.553,0.592,1.09,1.2,1.609,1.822c-1.102-1.488-1.164-1.564-0.189-0.227c1.328,1.833,2.433,3.817,3.454,5.832
				c1.696,3.348-1.13-3.038,0.21,0.409c0.385,0.99,0.701,2.006,1.017,3.019c0.615,1.972,1.039,4,1.404,6.031
				c0.633,3.517-0.38-3.531-0.009-0.028c0.136,1.284,0.196,2.574,0.248,3.864c0.141,3.542-0.093,7.095-0.511,10.612
				c0.645-5.424-0.052-0.074-0.296,1.202c-0.269,1.405-0.596,2.798-0.947,4.184c-0.439,1.732-0.959,3.442-1.573,5.119
				c-2.585,7.062-5.169,14.124-7.754,21.185c-10.634,29.053-21.268,58.106-31.901,87.159c-4.241,11.587-8.482,23.175-12.723,34.762
				c-1.019,2.783-2.037,5.566-3.056,8.349c-0.547,1.494-1.29,1.541,0.405-1.311c-1.433,2.412-3.038,4.719-4.684,6.988
				c-2.693,3.711,1.791-2.176-1.093,1.376c-1.17,1.442-2.404,2.831-3.644,4.212c-3.653,4.07-7.646,7.828-11.769,11.415
				c-1.986,1.729-4.039,3.38-6.109,5.007c2.653-2.085-0.681,0.471-1.029,0.728c-1.321,0.976-2.665,1.92-4.012,2.86
				c-6.833,4.766-14.019,9.038-21.404,12.887c-2.024,1.055-4.073,2.063-6.141,3.029c-2.076,0.969-4.421,1.47,1.466-0.568
				c-2.593,0.897-5.185,1.795-7.778,2.692c-27.422,9.492-54.845,18.985-82.267,28.477c-4.014,1.389-8.027,2.779-12.041,4.168
				c-0.601,0.208-1.202,0.416-1.802,0.624c-0.158,0.055-3.169,0.501-0.489,0.146c-1.43,0.19-2.869,0.299-4.307,0.407
				c-3.143,0.236-6.299,0.178-9.442-0.014c-0.593-0.036-4.842-0.553-1.03-0.017c-1.203-0.169-2.395-0.408-3.586-0.646
				c-2.277-0.457-4.511-1.106-6.72-1.819c-1.059-0.342-2.099-0.742-3.137-1.141c3.697,1.422,0.331,0.115-0.371-0.214
				c-2.174-1.018-4.26-2.216-6.301-3.477c-1.652-1.02-3.232-2.151-4.785-3.313c3.738,2.797-0.993-0.96-1.844-1.729
				c-2.558-2.313-4.906-4.854-7.108-7.506c-2.377-2.863,2.15,2.98-0.461-0.602c-0.642-0.881-1.254-1.784-1.853-2.695
				c-0.827-1.256-1.604-2.547-2.319-3.87c-0.627-1.16-1.331-2.273-2.018-3.4c-5.961-9.78-11.923-19.561-17.884-29.341
				c-14.298-23.458-28.596-46.916-42.894-70.373c-0.461-0.757-0.923-1.514-1.384-2.271c-0.199-0.326-0.33-0.703,0.169,0.519
				c-1.353-3.311-2.271-6.788-3.045-10.273c-0.33-1.486-0.567-2.991-0.805-4.493c0.477,3.01-0.121-1.86-0.133-2.009
				c-0.25-2.944-0.286-5.903-0.265-8.855c0.019-2.824,0.204-5.645,0.434-8.458c0.109-1.336,0.262-2.669,0.414-4
				c0.223-1.783,0.214-1.722-0.026,0.183c0.12-0.805,0.247-1.609,0.381-2.412c1.194-7.353,3.042-14.513,5.561-21.506
				c8.61-23.899,17.219-47.798,25.829-71.697c9.361-25.986,18.723-51.971,28.084-77.957c0.856-2.376,1.712-4.753,2.568-7.129
				c0.062-0.171,0.123-0.342,0.185-0.513c-2.37,6.577,2.292-1.974,0.159,0.768c1.59-2.045,3.427-3.883,5.335-5.628
				c3.012-2.753-2.446,1.666,0.77-0.681c1.258-0.918,2.598-1.718,3.944-2.499c0.98-0.568,2-1.062,3.018-1.555
				c3.414-1.654-3.011,1.137,0.48-0.173c1.977-0.742,4.022-1.294,6.073-1.787c0.985-0.237,1.983-0.419,2.98-0.602
				c3.475-0.637-3.552,0.389-0.123-0.008c2.098-0.243,4.211-0.332,6.321-0.366c2.947-0.047,5.897,0.147,8.823,0.484
				c2.569,0.296-4.19-0.596-1.81-0.237c0.444,0.067,0.887,0.144,1.329,0.222c0.655,0.115,1.308,0.248,1.957,0.395
				c0.105,0.024,0.211,0.049,0.316,0.076c7.922,1.998,16.25-2.472,18.452-10.477C156.93,17.237,152.246,8.535,144.321,6.536z"/>
		</g>
	</g>
	<g display="inline">
		<g>
			<path d="M106.774,128.658c1.987-1.4,4.149-2.572,6.294-3.704c1.017-0.537,2.049-1.042,3.085-1.541
				c1.054-0.508,6.275-2.721,1.686-0.819c3.395-1.407,6.877-2.593,10.393-3.656c4.193-1.267,8.473-2.225,12.782-3.004
				c0.853-0.149,1.707-0.289,2.563-0.419c-3.58,0.565,0.888-0.097,1.349-0.148c2.827-0.312,5.667-0.468,8.508-0.572
				c12.711-0.467,21.349,0.877,33.619,4.318c7.869,2.207,16.293-2.627,18.452-10.477c2.176-7.91-2.609-16.245-10.477-18.452
				c-24.076-6.752-49.575-7.264-73.704-0.486c-10.138,2.848-20.997,6.928-29.691,13.055c-6.669,4.7-9.779,13.016-5.381,20.523
				C90.119,129.879,100.079,133.377,106.774,128.658L106.774,128.658z"/>
		</g>
	</g>
	<g display="inline">
		<g>
			<path d="M111.818,178.915c1.999-1.398,4.174-2.565,6.345-3.667c1.124-0.571,2.27-1.097,3.423-1.607
				c-5.116,2.264-0.12,0.104,1.128-0.341c3.094-1.104,6.283-1.913,9.514-2.495c3.184-0.574-3.762,0.419-0.506,0.058
				c0.893-0.099,1.791-0.149,2.688-0.198c1.843-0.101,3.689-0.036,5.528,0.092c3.393,0.237-3.619-0.61-0.222-0.055
				c0.959,0.157,1.905,0.384,2.849,0.611c1.173,0.282,7.018,2.614,3.086,0.856c1.986,0.887,3.85,2.021,5.661,3.218
				c3.203,2.118-2.391-2.052,0.666,0.484c0.951,0.788,1.837,1.652,2.722,2.511c0.936,0.909,1.8,1.889,2.664,2.865
				c2.925,3.306-1.627-2.376,1.097,1.365c1.829,2.512,3.392,5.21,4.883,7.931c3.923,7.162,13.619,9.425,20.523,5.381
				c7.195-4.214,9.31-13.35,5.381-20.523c-11.663-21.296-32.355-36.874-57.527-34.539c-12.15,1.127-24.951,5.09-35.046,12.148
				c-6.687,4.675-9.767,13.036-5.381,20.523C95.174,180.157,105.105,183.609,111.818,178.915L111.818,178.915z"/>
		</g>
	</g>
	<g display="inline">
		<g>
			<path d="M68.72,227.127c12.721,14.192,28.71,26.101,44.439,36.652c35.636,23.905,76.408,38.991,118.974,44.113
				c17.251,2.076,34.712,2.034,51.985,0.267c-3.536-8.536-7.071-17.071-10.607-25.607c-1.92,1.905-3.935,3.719-5.954,5.518
				c-2.284,2.034-4.61,4.019-6.964,5.971c-1.373,1.138-2.76,2.26-4.155,3.372c-0.749,0.597-1.504,1.189-2.259,1.778
				c-1.821,1.421,3.314-2.552,1.465-1.131c-0.538,0.414-1.079,0.824-1.62,1.234c-7.664,5.803-15.648,11.188-23.934,16.064
				c-4.568,2.689-9.247,5.189-14.017,7.501c-2.334,1.131-4.698,2.198-7.082,3.22c5.213-2.236,0.59-0.269-0.634,0.214
				c-1.414,0.558-2.841,1.084-4.272,1.597c-5.094,1.824-10.306,3.312-15.597,4.443c-1.261,0.27-2.529,0.505-3.798,0.727
				c-1.363,0.239-6.347,0.875-0.459,0.123c-2.747,0.351-5.511,0.55-8.278,0.64c-2.545,0.083-5.092,0.018-7.632-0.146
				c-1.27-0.082-2.537-0.213-3.801-0.361c5.987,0.7,0.391,0.014-1.055-0.262c-2.533-0.485-5.029-1.147-7.489-1.918
				c-1.248-0.391-2.478-0.838-3.701-1.302c-1.045-0.397-3.513-1.471,1.135,0.511c-0.82-0.35-1.627-0.728-2.431-1.11
				c-2.479-1.177-4.863-2.544-7.18-4.011c-1.2-0.76-2.365-1.574-3.518-2.404c-0.856-0.617-3.063-2.368,0.72,0.589
				c-0.778-0.609-1.536-1.244-2.29-1.882c-2.365-2.001-4.58-4.173-6.705-6.424c-1.122-1.188-2.195-2.421-3.252-3.666
				c-0.544-0.641-1.071-1.296-1.599-1.95c-1.62-2.011,2.184,2.936-0.277-0.392c-4.761-6.439-8.731-13.44-12.237-20.628
				c-0.943-1.933-1.828-3.893-2.697-5.86c-1.534-3.473,1.244,3.037-0.23-0.528c-0.438-1.059-0.857-2.126-1.276-3.193
				c-1.93-4.912-3.629-9.912-5.212-14.946c-5.271-16.762-8.763-34.059-11.438-51.406c-1.248-8.093-11.267-12.453-18.452-10.477
				c-8.557,2.354-11.722,10.378-10.477,18.452c6.172,40.024,16.9,82.854,44.298,114.013c17.45,19.846,42.968,30.652,69.343,29.19
				c41.399-2.295,79.56-27.295,109.8-54.012c2.182-1.928,4.355-3.88,6.422-5.932c8.61-8.547,2.891-26.987-10.607-25.607
				c-12.912,1.32-25.864,1.634-38.822,0.898c-2.946-0.167-5.887-0.419-8.825-0.698c-1.448-0.138-2.893-0.303-4.338-0.467
				c-0.277-0.032-5.002-0.661-1.718-0.204c-6.014-0.837-11.986-1.961-17.916-3.259c-10.748-2.353-21.305-5.538-31.634-9.316
				c-2.354-0.861-4.689-1.774-7.016-2.704c-0.501-0.2-4.339-1.793-0.966-0.37c-1.119-0.472-2.232-0.961-3.344-1.449
				c-4.669-2.048-9.263-4.265-13.805-6.58c-14.816-7.551-28.898-16.549-42.106-26.645c4.037,3.085-0.464-0.383-1.385-1.117
				c-1.172-0.935-2.331-1.884-3.487-2.839c-2.227-1.84-4.416-3.726-6.578-5.642c-3.001-2.661-5.93-5.405-8.77-8.238
				c-1.182-1.179-2.36-2.371-3.475-3.615c-5.46-6.091-15.67-5.543-21.213,0C62.705,211.928,63.267,221.044,68.72,227.127z"/>
		</g>
	</g>
	<g display="inline">
		<g>
			<path d="M345.335,195.645c-2.575-10.326-7.949-20.456-13.697-29.326c-13.519-20.864-33.01-37.493-55.49-48.018
				c-7.405-3.467-16.115-2.144-20.523,5.381c-3.846,6.565-2.023,17.056,5.381,20.523c5.649,2.645,11.088,5.631,16.33,9.013
				c2.408,1.554,4.732,3.235,7.022,4.957c-2.464-1.852,1.042,0.904,1.246,1.073c1.357,1.123,2.669,2.299,3.974,3.482
				c3.631,3.293,6.997,6.871,10.177,10.597c0.737,0.863,1.448,1.748,2.158,2.633c-2.41-3.001-0.113-0.132,0.306,0.433
				c1.42,1.914,2.753,3.891,4.048,5.89c1.935,2.986,3.691,6.087,5.326,9.247c0.691,1.336,1.339,2.693,1.971,4.057
				c0.284,0.614,0.556,1.233,0.828,1.853c1.035,2.361-1.637-4.004-0.351-0.789c0.906,2.266,1.773,4.595,2.364,6.968
				c1.978,7.931,10.717,12.604,18.452,10.477C342.879,211.891,347.311,203.573,345.335,195.645L345.335,195.645z"/>
		</g>
	</g>
	<g display="inline">
		<g>
			<path d="M308.676,230.393c-2.94-11.603-9.497-22.687-17.42-31.533c-17.056-19.041-43.647-21.785-66.686-13.148
				c-7.649,2.867-12.793,10.03-10.477,18.452c2.021,7.347,10.788,13.35,18.452,10.477c2.624-0.984,5.269-1.851,7.974-2.585
				c1.238-0.336,2.494-0.597,3.75-0.857c0.802-0.157,1.606-0.297,2.414-0.42c-2.025,0.261-2.19,0.302-0.494,0.122
				c2.174-0.208,4.362-0.198,6.541-0.101c0.918,0.041,4.481,0.52,0.051-0.111c1.278,0.182,2.537,0.472,3.789,0.778
				c1.215,0.297,6.966,2.538,2.467,0.596c1.863,0.805,3.629,1.819,5.342,2.902c0.713,0.451,1.398,0.947,2.081,1.442
				c-3.839-2.777-0.649-0.451,0.166,0.267c1.403,1.236,2.696,2.594,3.943,3.986c0.519,0.58,1.012,1.183,1.505,1.786
				c-2.954-3.612-1.126-1.469-0.505-0.618c0.997,1.366,1.907,2.794,2.784,4.238c1.527,2.514,2.844,5.155,4.027,7.847
				c-2.473-5.626,0.146,0.536,0.695,2.2c0.245,0.744,0.48,1.495,0.673,2.254c2.008,7.923,10.694,12.61,18.452,10.477
				C306.198,246.645,310.683,238.314,308.676,230.393L308.676,230.393z"/>
		</g>
	</g>
	<g display="inline">
		<g>
			<path d="M415.821,221.464c11.614-4.478,23.227-8.955,34.841-13.433c2.659-1.025,5.296-2.249,8.066-2.944
				c0.894-0.225,1.796-0.413,2.7-0.594c1.291-0.259,6.146-0.914,0.616-0.197c3.826-0.496,7.69-0.603,11.54-0.421
				c1.011,0.048,2.019,0.148,3.026,0.248c-4.321-0.432-0.727-0.076,0.162,0.084c2.154,0.389,4.261,0.989,6.338,1.671
				c0.685,0.225,4.096,1.75,0.622,0.183c1.062,0.479,2.08,1.049,3.096,1.619c1.044,0.586,2.031,1.266,3.016,1.945
				c-2.909-2.006,1.201,1.174,1.736,1.689c0.953,0.918,1.81,1.93,2.665,2.937c-1.193-1.406-0.481-0.824-1.364-3.234
				c0.052,0.142,0.104,0.284,0.156,0.426c0.314,0.857,0.628,1.714,0.942,2.572c3.279,8.947,6.557,17.894,9.836,26.841
				c10.818,29.519,21.635,59.038,32.453,88.557c4.103,11.197,8.207,22.394,12.31,33.591c0.974,2.657,1.947,5.314,2.921,7.971
				c0.124,0.337,0.247,0.675,0.371,1.012c0.504,1.194,1.008,2.389,1.512,3.583c-1.482-3.532-1.957-4.657-1.425-3.376
				c0.084,0.203,0.164,0.407,0.245,0.612c0.378,0.961,0.718,1.937,1.051,2.914c1.046,3.071,1.886,6.209,2.635,9.364
				c0.511,2.151,0.929,4.322,1.318,6.497c0.217,1.212,0.396,2.431,0.576,3.649c-0.553-3.749,0.159,1.978,0.22,2.633
				c1.309,14.232,0.123,25.498-3.662,38.737c-0.374,1.309-3.367,7.844-1.005,3.907c-0.123,0.205-0.247,0.411-0.37,0.616
				c-0.653,1.089-1.307,2.178-1.96,3.267c-2.486,4.144-4.972,8.287-7.459,12.431c-15.568,25.946-31.136,51.893-46.704,77.839
				c-3.182,5.304-6.27,10.68-9.555,15.921c-0.818,1.304-3.159,4.261,0.677-0.701c-1.196,1.547-2.515,2.993-3.886,4.386
				c-0.833,0.846-1.706,1.652-2.59,2.443c-0.942,0.844-4.907,3.895-0.654,0.663c-2.775,2.109-5.765,3.918-8.851,5.532
				c-0.798,0.417-1.612,0.801-2.426,1.184c-3.016,1.42,3.29-1.307,0.117-0.029c-1.867,0.752-3.782,1.377-5.706,1.961
				c-2.081,0.631-4.202,1.118-6.329,1.559c-1.128,0.234-2.266,0.416-3.404,0.598c4.094-0.656-1.267,0.085-2.047,0.151
				c-5.453,0.457-10.943,0.26-16.383-0.239c-0.087-0.008-4.955-0.66-2.088-0.236c-1.595-0.236-3.18-0.537-4.763-0.836
				c-2.199-0.416-4.625-0.757-6.733-1.517c-8.375-3.021-16.751-6.043-25.126-9.064c-25.36-9.149-50.719-18.297-76.079-27.446
				c-1.708-0.616-3.784-1.625,2.216,1.015c-0.778-0.343-1.535-0.735-2.289-1.129c-4.288-2.241-8.329-4.951-12.215-7.824
				c-0.772-0.57-3.148-2.457,0.376,0.305c-0.704-0.552-1.396-1.119-2.089-1.687c-1.494-1.224-2.945-2.499-4.382-3.789
				c-3.576-3.211-6.933-6.657-10.152-10.223c-1.672-1.852-3.27-3.769-4.844-5.705c-2.723-3.349,1.776,2.398-0.892-1.132
				c-0.826-1.093-1.623-2.208-2.419-3.323c-3.749-5.248-7.089-10.777-10.178-16.435c-5.377-9.852-8.65-19.007-12.889-29.978
				c-3.487-9.024-6.973-18.048-10.46-27.072c-2.944-7.62-9.97-12.81-18.452-10.477c-7.288,2.005-13.427,10.815-10.477,18.452
				c11.25,29.119,20.75,59.871,39.779,85.044c14.377,19.019,32.425,36.043,55.113,44.228c26.947,9.721,53.893,19.442,80.84,29.163
				c9.99,3.604,19.096,7.021,29.688,8.587c21.803,3.224,44.297,1.166,63.556-10.275c15.62-9.279,23.322-22.632,32.277-37.557
				c15.568-25.946,31.136-51.893,46.704-77.839c4.95-8.25,9.906-15.715,12.882-24.923c7.764-24.021,7.545-51.223,0.505-75.4
				c-0.608-2.088-1.299-4.156-2.083-6.185c-0.568-1.469-1.227-2.962-1.834-4.379c2.551,5.961,1.859,4.535,1.374,3.211
				c-0.79-2.156-1.58-4.311-2.37-6.467c-3.865-10.546-7.729-21.091-11.594-31.637c-10.855-29.622-21.711-59.244-32.566-88.867
				c-3.555-9.702-7.111-19.404-10.666-29.105c-0.558-1.523-1.116-3.046-1.674-4.568c-4.629-12.632-17.697-21.066-29.659-25.692
				c-28.92-11.185-57.955,5.053-84.295,15.209c-7.622,2.939-12.808,9.975-10.477,18.452
				C399.375,218.28,408.182,224.409,415.821,221.464L415.821,221.464z"/>
		</g>
	</g>
	<g display="inline">
		<g>
			<path d="M494.573,278.992c-9.158-5.175-19.891-8.338-30.159-10.308c-24.762-4.752-50.404-2.267-73.88,6.902
				c-7.609,2.972-12.816,9.948-10.477,18.452c1.999,7.267,10.825,13.455,18.452,10.477c10.524-4.11,22.734-7.162,31.807-7.939
				c4.916-0.421,9.86-0.433,14.785-0.221c2.248,0.097,4.491,0.3,6.729,0.53c4.306,0.442-3.1-0.491,1.047,0.124
				c1.191,0.176,2.377,0.391,3.562,0.606c6.543,1.185,12.979,3.028,19.177,5.43c3.594,1.393-3.322-1.475-0.165-0.087
				c0.697,0.306,1.386,0.63,2.072,0.96c0.644,0.31,1.285,0.629,1.907,0.981c7.121,4.024,16.349,1.744,20.523-5.381
				C504.04,292.54,501.681,283.009,494.573,278.992L494.573,278.992z"/>
		</g>
	</g>
	<g display="inline">
		<g>
			<path d="M402.49,355.73c9.447,7.921,21.076,13.924,33.185,16.345c10.32,2.063,21.249,1.817,31.13-2.058
				c13.982-5.483,24.246-15.596,32.507-27.947c4.552-6.805,1.349-16.58-5.381-20.523c-7.377-4.321-15.987-1.401-20.523,5.381
				c-2.834,4.237-5.105,6.948-9.699,10.941c-1.354,1.11-1.381,1.136-0.08,0.079c-1.006,0.739-2.072,1.391-3.137,2.041
				c-1.016,0.62-2.083,1.151-3.147,1.68c-3.48,1.729,2.946-1.071-0.612,0.206c-1.693,0.608-3.449,1.022-5.207,1.384
				c-3.584,0.738,3.465-0.319-0.119,0.025c-1.007,0.097-2.019,0.116-3.029,0.137c-1.644,0.033-3.287-0.09-4.921-0.246
				c4.86,0.465-1.308-0.333-2.554-0.63c-1.473-0.352-2.921-0.805-4.358-1.278c-0.831-0.274-1.649-0.585-2.466-0.895
				c-2.956-1.122,3.31,1.464,0.49,0.216c-2.468-1.092-4.849-2.379-7.167-3.758c-1.648-0.981-3.245-2.048-4.8-3.171
				c-2.701-1.951,3.366,2.757,1.101,0.858c-6.259-5.248-15.056-6.157-21.213,0C397.09,339.916,396.218,350.471,402.49,355.73
				L402.49,355.73z"/>
		</g>
	</g>
	<g display="inline">
		<g>
			<path d="M290.67,422.305c11.583,3.609,24.478,3.619,36.297,1.465c25.012-4.56,41.008-26.127,45.638-50.026
				c1.553-8.02-2.144-16.16-10.477-18.452c-7.416-2.04-16.896,2.444-18.452,10.477c-0.524,2.706-1.155,5.37-1.926,8.017
				c-0.353,1.213-0.777,2.404-1.202,3.593c-0.629,1.604-0.574,1.519,0.165-0.255c-0.309,0.699-0.634,1.392-0.974,2.077
				c-1.085,2.249-2.409,4.373-3.839,6.417c2.308-3.3,0.464-0.606-0.112,0.069c-0.818,0.959-1.713,1.849-2.618,2.724
				c-0.656,0.635-1.356,1.221-2.055,1.807c3.303-2.767,1.007-0.795,0.194-0.233c-1.638,1.131-3.397,2.075-5.186,2.941
				c-2.794,1.353,3.407-1.338,0.541-0.224c-1.007,0.391-2.038,0.715-3.07,1.03c-1.757,0.536-3.558,0.92-5.364,1.25
				c-1.103,0.201-4.052,0.516,0.969-0.1c-0.739,0.091-1.481,0.151-2.223,0.212c-1.659,0.136-3.326,0.169-4.99,0.166
				c-1.537-0.003-3.074-0.085-4.606-0.196c-1.509-0.109-6.901-0.859-0.64,0.022c-2.715-0.382-5.471-0.892-8.094-1.709
				c-7.806-2.432-16.339,2.796-18.452,10.477C277.971,411.935,282.871,419.875,290.67,422.305L290.67,422.305z"/>
		</g>
	</g>
	<g display="inline">
		<g>
			<path d="M508.363,439.913c-16.913-1.97-35.023,0.854-51.501,4.278c-40.683,8.452-77.921,29.017-109.329,55.84
				c8.536,3.536,17.071,7.071,25.607,10.607c0.093-3.238,0.378-6.476,0.69-9.698c0.152-1.566,0.325-3.13,0.511-4.693
				c0.103-0.87,0.214-1.738,0.328-2.607c-0.838,6.406-0.237,1.781-0.015,0.275c0.644-4.352,1.431-8.681,2.345-12.984
				c1.019-4.801,2.238-9.56,3.65-14.26c0.705-2.349,1.479-4.676,2.299-6.987c0.414-1.165,0.851-2.322,1.297-3.476
				c0.223-0.578,0.455-1.152,0.687-1.727c1.344-3.332-1.295,3.002-0.309,0.727c2.041-4.705,4.434-9.257,7.194-13.579
				c0.652-1.021,1.339-2.02,2.039-3.01c0.348-0.492,0.708-0.975,1.067-1.458c1.526-2.048-2.464,3.133-0.871,1.144
				c1.608-2.008,3.359-3.897,5.207-5.686c1.112-1.076,6.119-5.103,1.421-1.475c1.393-1.076,2.862-2.051,4.364-2.966
				c1.515-0.924,3.099-1.728,4.712-2.467c2.217-1.016-4.116,1.627-0.811,0.375c0.948-0.359,1.916-0.666,2.886-0.959
				c1.798-0.543,3.639-0.935,5.489-1.251c2.507-0.429-4.504,0.501-0.771,0.119c1.11-0.113,2.225-0.167,3.339-0.206
				c2.11-0.075,4.222,0.019,6.326,0.184c1.183,0.093,4.972,0.624-0.294-0.109c1.282,0.179,2.555,0.417,3.824,0.669
				c5.098,1.009,10.059,2.641,14.888,4.543c1.484,0.606,1.175,0.469-0.927-0.411c0.602,0.259,1.202,0.522,1.8,0.791
				c1.551,0.689,3.078,1.43,4.6,2.181c2.941,1.451,5.811,3.041,8.649,4.683c6.505,3.762,12.72,8.012,18.771,12.46
				c0.403,0.296,4.726,3.588,2.538,1.89c1.934,1.501,3.837,3.04,5.734,4.587c4.071,3.321,8.039,6.768,11.959,10.266
				c6.096,5.438,15.188,6.025,21.213,0c5.532-5.532,6.104-15.768,0-21.213c-16.899-15.075-35.092-29.571-55.58-39.484
				c-14.047-6.797-29.714-11.916-45.519-10.937c-25.832,1.6-45.499,18.702-56.794,41.135
				c-11.538,22.916-17.201,50.014-17.937,75.617c-0.151,5.243,2.969,10.339,7.429,12.952c6.165,3.612,13.001,2.076,18.177-2.345
				c15.672-13.384,33.102-24.593,51.769-33.464c1.863-0.885,3.748-1.726,5.634-2.56c1.666-0.717,1.861-0.805,0.584-0.263
				c1.364-0.57,2.739-1.113,4.114-1.656c3.946-1.558,7.951-2.963,11.981-4.289c7.585-2.496,15.326-4.505,23.142-6.128
				c3.227-0.671,6.476-1.237,9.732-1.749c0.951-0.15,5.76-0.792,1.025-0.173c1.567-0.205,3.138-0.379,4.709-0.545
				c4.711-0.497,9.445-0.785,14.18-0.89c4.227-0.094,8.536-0.104,12.745,0.386c8.14,0.948,15-7.541,15-15
				C523.363,446.021,516.482,440.859,508.363,439.913z"/>
		</g>
	</g>
</g>
<g id="Capa_4">
	<g>
		<g>
			<path d="M217.833,145c0,44.663,0,89.327,0,133.99c0,5.313,4.649,10.998,7.925,14.672c6.573,7.371,16.104,10.98,25.787,11.464
				c11.016,0.551,18.082-4.461,26.996-9.608c26.114-15.078,52.228-30.156,78.342-45.234c17.482-10.094,47.344-22.055,39.387-48.145
				c-3.747-12.285-13.783-17.687-24.071-23.07c-11.94-6.248-23.88-12.496-35.821-18.744c-23.053-12.063-46.106-24.126-69.159-36.189
				c-4.206-2.201-8.699-5.267-13.407-6.268c-17.657-3.755-31.72,7.315-35.621,24.472c-2.856,12.558,16.426,17.891,19.286,5.317
				c1.074-4.724,2.065-7.178,4.808-9.619c-1.568,1.395,0.433-0.138,0.773-0.331c2.274-1.288-1.889,0.607,0.489-0.188
				c0.696-0.233,1.419-0.375,2.137-0.519c-2.838,0.566-0.014,0.066,0.709,0.049c0.968-0.023,4.999,0.521,1.244-0.054
				c0.722,0.11,1.436,0.274,2.141,0.461c2.17,0.575-3.295-1.621-1.112-0.478c7.682,4.02,15.365,8.04,23.047,12.06
				c27.199,14.233,54.399,28.465,81.598,42.698c6.294,3.293,12.588,6.587,18.882,9.88c-0.497-0.26-1.89-1.572,0.867,0.895
				c0.906,0.811,1.875,1.764,2.594,2.752c-0.145-0.199,1.579,2.833,1.333,2.193c0.027,0.07,0.619,3.413,0.478,1.667
				c0.021,0.262-0.373,3.303-0.001,1.346c-0.033,0.173-1.039,3.094-0.232,1.233c-0.367,0.846-0.848,1.639-1.321,2.427
				c-0.314,0.5-0.645,0.989-0.994,1.465c0.7-0.894,0.7-0.919,0-0.075c-0.889,1.043-1.886,1.994-2.906,2.906
				c-2.137,1.911,0.648-0.418,0.187-0.086c-0.375,0.27-0.816,0.476-1.216,0.706c-22.11,12.766-44.22,25.532-66.33,38.298
				c-12.252,7.074-24.505,14.149-36.757,21.223c-3.344,1.931-6.687,3.861-10.031,5.792c-0.583,0.337-1.167,0.674-1.75,1.01
				c2.187-1.263-1.212-0.331-2.035-0.273c-3.03,0.214-4.387-0.052-6.588-0.631c-2.769-0.727-4.634-2.045-6.52-3.841
				c-0.55-0.524-1.056-1.092-1.56-1.658c-1.631-1.83,1.222,1.722-0.127-0.115c-0.73-0.993-1.369-2.052-1.961-3.131
				c-2.02-3.682,0.514,2.593,0.514,3.033c0-0.929,0-1.858,0-2.787c0-10.867,0-21.734,0-32.602c0-32.789,0-65.578,0-98.367
				C237.833,132.103,217.833,132.103,217.833,145z"/>
		</g>
	</g>
	<g>
		<g>
			<g>
				<path d="M569.404,378.321c10.504-8.163,12.91-24.582,12.93-36.782c0.009-5.311,0.018-10.622,0.027-15.932
					c0.043-25.832,0.086-51.665,0.129-77.497c0.093-55.645,0.185-111.29,0.278-166.935c0.007-3.916,0.404-8.076-0.43-11.938
					c-2.604-12.058-8.568-23.546-16.436-32.964C556.116,24.559,541.54,18.5,526.438,18.5c-6.062,0-12.125,0-18.187,0
					c-59.154,0-118.308,0-177.462,0c-16.152,0-32.303,0-48.455,0c-12.897,0-12.897,20,0,20c46.146,0,92.292,0,138.438,0
					c28.186,0,56.372,0,84.557,0c6.768,0,13.536,0,20.304,0c11.68,0,19.231,3.66,26.732,12.638c1.958,2.343-1.075-1.51,0.692,0.928
					c0.533,0.735,1.031,1.495,1.529,2.254c0.959,1.462,1.824,2.985,2.659,4.52c0.78,1.433,1.482,2.907,2.161,4.39
					c1.091,2.385-0.78-1.951,0.175,0.381c0.35,0.854,0.672,1.719,0.991,2.585c0.74,2.012,1.377,4.063,1.937,6.132
					c0.523,1.936,0.268,4.614,0.276-0.011c-0.007,3.918-0.013,7.835-0.02,11.753c-0.04,24.265-0.081,48.529-0.121,72.794
					c-0.096,57.383-0.191,114.767-0.287,172.15c-0.007,4.175-0.014,8.35-0.021,12.525c-0.009,5.199-0.413,9.936-2.037,14.905
					c-0.467,1.191-0.524,1.395-0.169,0.611c-0.372,0.869-0.816,1.706-1.261,2.539c-0.412,0.772-3.247,4.658-1.287,2.215
					c-0.682,0.851-1.453,1.698-2.318,2.371c-4.312,3.351-3.493,10.649,0,14.142C559.474,382.533,565.104,381.662,569.404,378.321
					L569.404,378.321z"/>
			</g>
		</g>
		<g>
			<g>
				<path d="M282.333,79.5c49.943,0,99.886,0,149.828,0c11.391,0,22.781,0,34.172,0c12.897,0,12.897-20,0-20
					c-49.943,0-99.886,0-149.828,0c-11.391,0-22.781,0-34.172,0C269.436,59.5,269.436,79.5,282.333,79.5L282.333,79.5z"/>
			</g>
		</g>
		<g>
			<g>
				<path d="M491.511,21.346c-6.51,5.6-12.033,12.448-17.228,19.237c-11.449,14.961-20.182,31.924-25.567,49.99
					c-3.394,11.387-5.103,23.363-5.441,35.226c-0.174,6.097,0.213,12.197,0.921,18.25c0.07,0.595,0.554,6.65,0.429,3.172
					c0.002,0.058,0.005,0.116,0.008,0.174c0.02,0.399,0.054,0.796,0.09,1.194c1.18,13.323,5.394,26.131,10.613,38.369
					c7.598,17.817,18.188,33.936,30.274,49.015c4.72,5.889,9.914,14.528,18.208,14.528c3.689,0,7.379,0,11.068,0
					c19.149,0,38.298,0,57.447,0c12.897,0,12.897-20,0-20c-23.222,0-46.444,0-69.667,0c2.357,0.976,4.714,1.953,7.071,2.929
					c-16.314-17.967-30.811-39.271-38.949-61.358c-2.342-6.355-4.212-12.902-5.475-19.557c-0.193-1.019-0.361-2.042-0.517-3.067
					c-0.384-2.521,0.314,2.723,0.009-0.021c-0.081-0.732-0.152-1.469-0.181-2.206c-0.229-5.662-1.262-11.273-1.371-16.976
					c-0.111-5.784,0.179-11.666,1.005-17.394c1.45-10.066,4.485-20.992,8.221-29.822c3.571-8.438,8.065-16.475,13.138-24.096
					c1.056-1.586,2.156-3.143,3.27-4.689c0.527-0.732,1.068-1.455,1.608-2.178c1.741-2.329-1.201,1.513,0.535-0.704
					c1.997-2.551,4.094-5.024,6.254-7.438c2.63-2.939,5.374-5.86,8.368-8.436c4.135-3.558,3.636-10.506,0-14.142
					C501.585,17.277,495.639,17.794,491.511,21.346L491.511,21.346z"/>
			</g>
		</g>
		<g>
			<g>
				<path d="M572.333,280.5c-22,0-44,0-66,0c1.682,0.455,3.365,0.91,5.047,1.365c-0.338-0.218-0.665-0.453-0.991-0.688
					c-1.821-1.308,1.798,1.436,0.335,0.265c-0.6-0.48-1.178-0.986-1.754-1.495c-1.248-1.105-2.41-2.301-3.53-3.533
					c-0.289-0.318-2.371-3.014-1.007-1.168c-0.692-0.936-1.304-1.928-1.9-2.927c-0.463-0.776-0.858-1.589-1.252-2.401
					c0.874,1.804-0.475-1.572-0.593-1.981c-0.166-0.618-0.308-1.241-0.425-1.87c0.107,1.053,0.107,0.962-0.002-0.27
					c-0.032-0.396,0.123-3.977-0.082-2.534c0.892-6.288,4.948-11.188,9.558-15.693c9.237-9.026-4.916-23.158-14.142-14.142
					c-14.262,13.937-20.717,33.57-8.926,51.21c4.95,7.405,12.447,15.861,21.927,15.861c21.246,0,42.491,0,63.737,0
					C585.231,300.5,585.231,280.5,572.333,280.5L572.333,280.5z"/>
			</g>
		</g>
		<g>
			<g>
				<path d="M499.262,283.429c-5.371,4.722-10.741,9.444-16.112,14.167c-4.096,3.601-3.668,10.475,0,14.142
					c4.037,4.037,10.052,3.596,14.142,0c5.371-4.722,10.741-9.444,16.112-14.167c4.096-3.601,3.668-10.475,0-14.142
					C509.367,279.391,503.352,279.833,499.262,283.429L499.262,283.429z"/>
			</g>
		</g>
	</g>
	<g>
		<g>
			<g>
				<path d="M41.854,364.179c-0.796-0.619-3.28-3.638-1.519-1.326c-0.966-1.268-1.762-2.653-2.511-4.056
					c-0.967-1.811-1.277-2.975-2.025-5.832c-1.051-4.015-1.011-8.112-1.018-12.226c-0.01-6.108-0.02-12.215-0.031-18.323
					c-0.044-26.695-0.089-53.39-0.133-80.085c-0.091-54.446-0.181-108.892-0.272-163.338c-0.003-1.955-0.007-3.909-0.01-5.864
					c0-0.27-0.001-0.541-0.001-0.811c0.008,4.621-0.235,1.949,0.276,0.011c0.547-2.074,1.214-4.114,1.937-6.132
					c0.241-0.673,1.904-4.691,0.851-2.259c0.75-1.735,1.593-3.427,2.475-5.097c3.493-6.615,7.62-11.73,12.872-15.28
					c6.841-4.624,13.331-5.06,21.961-5.06c8.487,0,16.974,0,25.461,0c60.004,0,120.007,0,180.011,0c11.535,0,23.07,0,34.605,0
					c12.897,0,12.897-20,0-20c-46.146,0-92.292,0-138.438,0c-28.186,0-56.372,0-84.557,0c-6.768,0-13.536,0-20.304,0
					c-14.062,0-26.718,4.585-37,14.288C21.905,44.659,14.316,62.165,14.345,79.337c0.037,22.169,0.074,44.337,0.111,66.506
					c0.098,59.04,0.197,118.081,0.295,177.121c0.01,6.072,0.02,12.144,0.03,18.216c0.021,12.332,2.3,28.88,12.931,37.141
					c4.3,3.341,9.931,4.211,14.142,0C45.347,374.828,46.166,367.53,41.854,364.179L41.854,364.179z"/>
			</g>
		</g>
		<g>
			<g>
				<path d="M314.783,59.5c-49.943,0-99.886,0-149.828,0c-11.391,0-22.781,0-34.172,0c-12.897,0-12.897,20,0,20
					c49.943,0,99.886,0,149.828,0c11.391,0,22.781,0,34.172,0C327.68,79.5,327.68,59.5,314.783,59.5L314.783,59.5z"/>
			</g>
		</g>
		<g>
			<g>
				<path d="M91.463,35.488c1.679,1.444,3.246,3.027,4.793,4.609c1.693,1.733,3.324,3.526,4.922,5.346
					c0.979,1.115,1.932,2.252,2.877,3.395c0.512,0.619,1.014,1.246,1.516,1.873c0.347,0.436,0.692,0.874,1.034,1.313
					c-0.691-0.893-0.685-0.88,0.016,0.041c11.239,14.859,19.319,31.053,23.86,48.865c4.176,16.381,3.751,32.874,1.709,49.521
					c0.502-4.096,0.055-0.501-0.1,0.442c-0.188,1.14-0.409,2.275-0.638,3.407c-0.653,3.224-1.49,6.408-2.412,9.564
					c-2.616,8.957-5.696,16.196-9.824,24.336c-8.385,16.534-19.4,31.531-31.837,45.228c2.357-0.976,4.714-1.953,7.071-2.929
					c-23.222,0-46.444,0-69.667,0c-12.897,0-12.897,20,0,20c23.069,0,46.139,0,69.208,0c5.987,0,9.168-4.68,12.716-8.773
					c5.261-6.069,10.184-12.45,14.86-18.978c7.064-9.86,13.202-20.389,18.283-31.402c6.111-13.244,10.728-27.084,12.424-41.601
					c0.082-0.706,0.148-1.414,0.195-2.123c0.009-0.135,0.016-0.269,0.022-0.404c-0.246,1.949-0.171,1.417,0.225-1.596
					c0.203-1.566,0.386-3.132,0.55-4.703c0.972-9.301,0.74-18.702-0.385-27.975c-2.111-17.397-7.47-33.929-15.464-49.506
					c-7.846-15.289-18.677-30.794-31.812-42.094c-4.128-3.551-10.074-4.069-14.142,0C87.826,24.982,87.327,31.93,91.463,35.488
					L91.463,35.488z"/>
			</g>
		</g>
		<g>
			<g>
				<path d="M24.783,300.5c21.126,0,42.251,0,63.377,0c9.692,0,16.376-7.828,21.793-15.159c4.722-6.39,7.284-14.686,6.879-22.614
					c-0.592-11.562-7.266-21.436-15.311-29.298c-9.226-9.016-23.379,5.116-14.142,14.142c4.76,4.652,8.364,9.345,9.558,15.693
					c-0.329-1.751-0.045,1.487-0.044,1.525c-0.01,0.669-0.049,1.335-0.117,2c0.136-1.038,0.097-0.964-0.117,0.221
					c-0.255,1.232-0.674,2.425-1.108,3.602c0.697-1.89-0.767,1.351-0.966,1.706c-0.428,0.766-0.918,1.496-1.406,2.225
					c-0.911,1.363,0.715-0.739-0.98,1.274c-1.243,1.476-2.626,2.832-4.052,4.129c-0.437,0.398-0.89,0.778-1.343,1.158
					c-2.014,1.692,1.317-0.967,0.207-0.136c-0.415,0.311-0.839,0.614-1.274,0.895c1.682-0.455,3.365-0.91,5.047-1.365
					c-22,0-44,0-66,0C11.885,280.5,11.885,300.5,24.783,300.5L24.783,300.5z"/>
			</g>
		</g>
		<g>
			<g>
				<path d="M83.712,297.571c5.371,4.722,10.741,9.444,16.112,14.167c4.09,3.596,10.105,4.037,14.142,0
					c3.668-3.668,4.096-10.541,0-14.142c-5.371-4.722-10.741-9.444-16.112-14.167c-4.09-3.596-10.105-4.037-14.142,0
					C80.044,287.097,79.616,293.97,83.712,297.571L83.712,297.571z"/>
			</g>
		</g>
	</g>
	<g>
		<g>
			<g>
				<path d="M532.425,438.379c-0.229,20.091-12.373,38.904-31.311,46.304c-19.806,7.738-41.691,2.052-55.909-13.443
					c-13.794-15.034-15.967-38.265-6.625-56.097c9.857-18.813,30.174-28.299,50.931-26.162
					C514.107,391.513,532.153,414.522,532.425,438.379c0.147,12.889,20.147,12.903,20,0c-0.277-24.294-12.665-46.284-33.082-59.363
					c-20.652-13.23-47.264-13.296-68.883-2.566c-21.617,10.728-34.94,32.882-37.363,56.412
					c-2.506,24.336,9.643,47.376,28.556,61.943c20.858,16.064,50.09,16.954,73.158,5.505c23.155-11.492,37.323-36.464,37.614-61.93
					C552.573,425.476,532.572,425.49,532.425,438.379z"/>
			</g>
		</g>
		<g>
			<g>
				<path d="M409.667,603.5c47.76,0,95.52,0,143.279,0c1.351,0,2.703,0,4.054,0c5.911,0,9.392-4.585,10-10
					c0.891-7.94,0.768-16.075,0.183-24.026c-1.128-15.349-4.388-31.73-13.541-44.458c-8.738-12.151-22.154-19.515-37.235-19.515
					c-13.873,0-27.746,0-41.619,0c-15.559,0-30.348-1.542-44.855,4.918c-32.448,14.451-34.145,55.623-29.91,85.74
					c0.76,5.408,7.564,8.287,12.301,6.984c5.757-1.583,7.743-6.908,6.984-12.301c-0.797-5.667-1.18-11.395-1.278-17.115
					c-0.045-2.624,0.041-5.249,0.182-7.869c0.134-2.491,0.463-5.321,0.681-6.684c0.639-3.993,1.668-7.915,3.005-11.728
					c0.079-0.225,1.199-3.034,0.316-0.955c0.335-0.789,0.709-1.562,1.082-2.333c0.819-1.69,1.772-3.311,2.783-4.892
					c0.408-0.638,0.847-1.254,1.287-1.87c1.464-2.052-1.338,1.632,0.224-0.27c0.875-1.065,1.827-2.064,2.803-3.035
					c0.918-0.914,1.9-1.76,2.901-2.581c-2.381,1.952,1.167-0.766,1.904-1.234c0.946-0.602,1.929-1.143,2.922-1.664
					c0.753-0.395,4.248-1.905,0.915-0.517c1.802-0.75,3.667-1.344,5.555-1.834c1.337-0.347,2.696-0.61,4.062-0.815
					c-4.339,0.649-0.954,0.127,0.202,0.069c1.781-0.089,3.579-0.015,5.36-0.015c14.655,0,29.309,0,43.964,0
					c5.104,0,10.209,0,15.313,0c1.428,0,2.856,0,4.284,0c1.698,0,1.667,0.038,2.57,0.195c1.591,0.278,3.148,0.715,4.687,1.196
					c0.59,0.193,1.174,0.402,1.752,0.626c-1.986-0.74,0.69,0.37,0.911,0.481c1.31,0.657,2.546,1.451,3.756,2.274
					c0.924,0.674,0.938,0.675,0.041,0.003c0.671,0.536,1.3,1.122,1.929,1.706c1.046,0.972,1.998,2.04,2.925,3.125
					c0.716,0.884,0.724,0.885,0.025,0.003c0.518,0.69,0.993,1.41,1.469,2.129c0.799,1.208,1.507,2.474,2.194,3.748
					c0.416,0.771,0.794,1.562,1.171,2.352c0.115,0.241,1.241,2.921,0.394,0.846c2.23,5.465,3.622,11.257,4.626,17.06
					c0.096,0.571,0.188,1.143,0.276,1.716c0.447,2.855-0.248-2.096,0.109,0.739c0.174,1.381,0.31,2.766,0.438,4.152
					c0.261,2.842,0.405,5.694,0.491,8.546c0.17,5.679,0.095,11.449-0.54,17.103c3.333-3.333,6.667-6.667,10-10
					c-47.76,0-95.52,0-143.279,0c-1.351,0-2.703,0-4.054,0C396.769,583.5,396.769,603.5,409.667,603.5z"/>
			</g>
		</g>
	</g>
	<g>
		<g>
			<g>
				<path d="M345.425,439.379c-0.229,20.091-12.373,38.904-31.311,46.304c-19.806,7.738-41.691,2.052-55.909-13.443
					c-13.794-15.034-15.967-38.265-6.625-56.097c9.857-18.813,30.174-28.299,50.931-26.162
					C327.107,392.513,345.153,415.522,345.425,439.379c0.147,12.889,20.147,12.903,20,0c-0.277-24.294-12.665-46.284-33.082-59.363
					c-20.652-13.23-47.264-13.296-68.883-2.566c-21.617,10.728-34.94,32.882-37.363,56.412
					c-2.506,24.336,9.643,47.376,28.556,61.943c20.858,16.064,50.09,16.954,73.158,5.505c23.155-11.492,37.324-36.464,37.614-61.93
					C365.573,426.476,345.572,426.49,345.425,439.379z"/>
			</g>
		</g>
		<g>
			<g>
				<path d="M222.667,604.5c47.76,0,95.52,0,143.279,0c1.351,0,2.703,0,4.054,0c5.911,0,9.392-4.585,10-10
					c0.891-7.94,0.768-16.075,0.183-24.026c-1.128-15.349-4.388-31.73-13.541-44.458c-8.738-12.151-22.154-19.515-37.235-19.515
					c-13.873,0-27.746,0-41.619,0c-15.559,0-30.348-1.542-44.855,4.918c-32.448,14.451-34.145,55.623-29.91,85.74
					c0.76,5.408,7.564,8.287,12.301,6.984c5.757-1.583,7.743-6.908,6.984-12.301c-0.797-5.667-1.18-11.395-1.278-17.115
					c-0.045-2.624,0.041-5.249,0.182-7.869c0.134-2.491,0.463-5.321,0.681-6.684c0.639-3.993,1.668-7.915,3.005-11.728
					c0.079-0.225,1.199-3.034,0.316-0.955c0.335-0.789,0.709-1.562,1.082-2.333c0.818-1.69,1.772-3.311,2.783-4.892
					c0.408-0.638,0.847-1.254,1.287-1.87c1.464-2.052-1.338,1.632,0.224-0.27c0.875-1.065,1.827-2.064,2.803-3.035
					c0.918-0.914,1.9-1.76,2.901-2.581c-2.381,1.952,1.167-0.766,1.904-1.234c0.946-0.602,1.929-1.143,2.922-1.664
					c0.753-0.395,4.248-1.905,0.915-0.517c1.802-0.75,3.667-1.344,5.555-1.834c1.337-0.347,2.696-0.61,4.062-0.815
					c-4.339,0.649-0.954,0.127,0.202,0.069c1.781-0.089,3.579-0.015,5.36-0.015c14.655,0,29.309,0,43.964,0
					c5.104,0,10.209,0,15.313,0c1.428,0,2.856,0,4.284,0c1.698,0,1.667,0.038,2.57,0.195c1.591,0.278,3.148,0.715,4.688,1.196
					c0.59,0.193,1.173,0.402,1.752,0.626c-1.986-0.74,0.69,0.37,0.911,0.481c1.31,0.657,2.546,1.451,3.756,2.274
					c0.924,0.674,0.938,0.675,0.041,0.003c0.671,0.536,1.3,1.122,1.929,1.706c1.046,0.972,1.998,2.04,2.925,3.125
					c0.716,0.884,0.724,0.885,0.025,0.003c0.518,0.69,0.993,1.41,1.469,2.129c0.799,1.208,1.507,2.474,2.194,3.748
					c0.416,0.771,0.794,1.562,1.171,2.352c0.115,0.241,1.241,2.921,0.394,0.846c2.23,5.465,3.622,11.257,4.626,17.06
					c0.096,0.571,0.188,1.143,0.276,1.716c0.447,2.855-0.248-2.096,0.109,0.739c0.174,1.381,0.31,2.766,0.437,4.152
					c0.261,2.842,0.405,5.694,0.491,8.546c0.17,5.679,0.095,11.449-0.54,17.103c3.333-3.333,6.667-6.667,10-10
					c-47.76,0-95.52,0-143.279,0c-1.351,0-2.703,0-4.054,0C209.769,584.5,209.769,604.5,222.667,604.5z"/>
			</g>
		</g>
	</g>
	<g>
		<g>
			<g>
				<path d="M158.425,439.379c-0.229,20.091-12.373,38.904-31.311,46.304c-19.806,7.738-41.691,2.052-55.909-13.443
					c-13.793-15.034-15.967-38.265-6.625-56.097c9.857-18.813,30.174-28.299,50.931-26.162
					C140.107,392.513,158.153,415.522,158.425,439.379c0.147,12.889,20.147,12.903,20,0c-0.277-24.294-12.665-46.284-33.082-59.363
					c-20.652-13.23-47.264-13.296-68.883-2.566c-21.617,10.728-34.94,32.882-37.363,56.412
					c-2.506,24.336,9.643,47.376,28.556,61.943c20.858,16.064,50.09,16.954,73.158,5.505c23.155-11.492,37.324-36.464,37.614-61.93
					C178.573,426.476,158.572,426.49,158.425,439.379z"/>
			</g>
		</g>
		<g>
			<g>
				<path d="M35.667,604.5c47.76,0,95.52,0,143.279,0c1.351,0,2.703,0,4.054,0c5.911,0,9.392-4.585,10-10
					c0.891-7.94,0.768-16.075,0.183-24.026c-1.128-15.349-4.388-31.73-13.541-44.458c-8.738-12.151-22.154-19.515-37.235-19.515
					c-13.873,0-27.746,0-41.619,0c-15.559,0-30.348-1.542-44.855,4.918c-32.448,14.451-34.145,55.623-29.91,85.74
					c0.76,5.408,7.564,8.287,12.301,6.984c5.757-1.583,7.743-6.908,6.984-12.301c-0.797-5.667-1.18-11.395-1.278-17.115
					c-0.045-2.624,0.041-5.249,0.182-7.869c0.134-2.491,0.463-5.321,0.681-6.684c0.639-3.993,1.668-7.915,3.005-11.728
					c0.079-0.225,1.199-3.034,0.316-0.955c0.335-0.789,0.709-1.562,1.082-2.333c0.819-1.69,1.772-3.311,2.783-4.892
					c0.408-0.638,0.847-1.254,1.287-1.87c1.464-2.052-1.338,1.632,0.224-0.27c0.875-1.065,1.827-2.064,2.803-3.035
					c0.918-0.914,1.9-1.76,2.901-2.581c-2.381,1.952,1.167-0.766,1.904-1.234c0.946-0.602,1.929-1.143,2.922-1.664
					c0.753-0.395,4.248-1.905,0.915-0.517c1.802-0.75,3.667-1.344,5.555-1.834c1.337-0.347,2.696-0.61,4.062-0.815
					c-4.339,0.649-0.954,0.127,0.202,0.069c1.781-0.089,3.579-0.015,5.36-0.015c14.655,0,29.309,0,43.964,0
					c5.104,0,10.209,0,15.313,0c1.428,0,2.856,0,4.284,0c1.698,0,1.667,0.038,2.57,0.195c1.591,0.278,3.148,0.715,4.688,1.196
					c0.59,0.193,1.174,0.402,1.752,0.626c-1.986-0.74,0.69,0.37,0.911,0.481c1.31,0.657,2.546,1.451,3.756,2.274
					c0.924,0.674,0.938,0.675,0.041,0.003c0.671,0.536,1.3,1.122,1.929,1.706c1.046,0.972,1.998,2.04,2.925,3.125
					c0.716,0.884,0.724,0.885,0.025,0.003c0.518,0.69,0.993,1.41,1.469,2.129c0.799,1.208,1.507,2.474,2.194,3.748
					c0.416,0.771,0.794,1.562,1.171,2.352c0.115,0.241,1.241,2.921,0.394,0.846c2.23,5.465,3.622,11.257,4.626,17.06
					c0.096,0.571,0.188,1.143,0.276,1.716c0.447,2.855-0.248-2.096,0.109,0.739c0.174,1.381,0.31,2.766,0.437,4.152
					c0.261,2.842,0.405,5.694,0.491,8.546c0.17,5.679,0.095,11.449-0.54,17.103c3.333-3.333,6.667-6.667,10-10
					c-47.76,0-95.52,0-143.279,0c-1.351,0-2.703,0-4.054,0C22.769,584.5,22.769,604.5,35.667,604.5z"/>
			</g>
		</g>
	</g>
</g>
</svg>
