<?xml version="1.0" encoding="utf-8"?>
<!-- Generator: Adobe Illustrator 17.0.1, SVG Export Plug-In . SVG Version: 6.00 Build 0)  -->
<!DOCTYPE svg PUBLIC "-//W3C//DTD SVG 1.0//EN" "http://www.w3.org/TR/2001/REC-SVG-20010904/DTD/svg10.dtd">
<svg version="1.0" xmlns="http://www.w3.org/2000/svg" xmlns:xlink="http://www.w3.org/1999/xlink" x="0px" y="0px"
	 width="594.333px" height="617px" viewBox="0 0 594.333 617" enable-background="new 0 0 594.333 617" xml:space="preserve">
<g id="Capa_2" display="none">
	<g display="inline">
		<g>
			<path d="M142.992,11.357c-26.365-6.65-61.217,3.769-71.115,31.243c-8.213,22.799-16.426,45.598-24.64,68.397
				c-9.648,26.782-19.297,53.565-28.945,80.347c-9.003,24.992-14.198,52.611-5.857,78.587c2.775,8.642,8.098,16.048,12.781,23.731
				c7.926,13.004,15.853,26.008,23.779,39.012c10.45,17.145,21.592,34.043,31.354,51.59c6.19,11.126,15.607,20.565,26.169,27.543
				c8.03,5.306,17.443,8.831,26.924,10.352c8.86,1.421,20.315,2.333,28.947-0.655c24.221-8.384,48.442-16.768,72.663-25.153
				c9.951-3.444,19.901-6.889,29.852-10.333c8.579-2.97,16.721-7.856,24.408-12.569c19.224-11.786,36.989-26.868,49.201-46
				c3.688-5.778,5.519-13.141,7.854-19.523c16.878-46.113,33.767-92.222,50.634-138.339c4.241-11.597,4.761-24.603,3.048-36.698
				c-2.342-16.528-14.351-34.928-30.568-40.715c-16.544-5.903-33.088-11.807-49.632-17.71
				C265.132,54.94,210.415,35.416,155.698,15.891C151.463,14.38,147.227,12.869,142.992,11.357
				c-5.137-1.833-10.937,2.024-12.301,6.984c-1.527,5.551,1.855,10.471,6.984,12.301c43.769,15.618,87.537,31.236,131.306,46.854
				c26,9.277,51.999,18.555,77.999,27.832c5.655,2.018,11.309,4.035,16.964,6.053c0.842,0.301,0.94,0.792-0.405-0.005
				c4.013,2.378,8.082,6.045,10.477,9.348c2.789,3.847,3.952,6.5,5.185,10.455c1.566,5.023,1.637,6.58,1.821,11.195
				c0.141,3.542-0.093,7.095-0.511,10.612c0.315-2.651-0.335,1.803-0.475,2.531c-0.269,1.405-0.596,2.798-0.947,4.184
				c-0.439,1.732-0.959,3.442-1.573,5.119c-2.585,7.062-5.169,14.124-7.754,21.185c-10.634,29.053-21.268,58.106-31.901,87.159
				c-4.241,11.587-8.482,23.175-12.723,34.762c-1.019,2.783-2.037,5.566-3.056,8.349c-0.331,0.903-1.075,1.525-0.099-0.116
				c-2.915,4.904-6.4,9.351-10.203,13.588c-12.646,14.091-28.625,24.97-45.335,33.679c-2.024,1.055-4.073,2.063-6.141,3.029
				c-1.457,0.68-4.088,1.445,0.272-0.064c-2.593,0.897-5.185,1.795-7.778,2.692c-27.422,9.492-54.845,18.985-82.267,28.477
				c-4.014,1.389-8.027,2.779-12.041,4.168c-5.478,1.896-11.658,1.69-17.37,1.341c-15.858-0.969-28.473-9.348-38.418-21.327
				c-0.342-0.411-1.837-2.334-0.126-0.11c-0.381-0.495-0.749-1-1.117-1.505c-0.642-0.881-1.254-1.784-1.853-2.695
				c-0.827-1.256-1.604-2.547-2.319-3.87c-0.627-1.16-1.331-2.273-2.018-3.4c-5.961-9.78-11.923-19.561-17.884-29.341
				c-14.298-23.458-28.596-46.916-42.894-70.373c-7.99-13.108-7.053-31.833-4.765-45.923c1.194-7.353,3.042-14.513,5.561-21.506
				c8.61-23.899,17.219-47.798,25.829-71.697c9.361-25.986,18.723-51.971,28.084-77.957c0.856-2.376,1.712-4.753,2.568-7.129
				c0.062-0.171,0.123-0.342,0.185-0.513c-1.014,2.814,1.1-0.995,1.445-1.438c3.224-4.145,6.654-7.033,11.061-9.589
				c6.792-3.938,13.731-5.053,21.273-5.173c2.947-0.047,5.897,0.147,8.823,0.484c2.166,0.25-2.45-0.356-0.481-0.058
				c0.444,0.067,0.887,0.144,1.329,0.222c0.655,0.115,1.308,0.248,1.957,0.395c0.105,0.024,0.211,0.049,0.315,0.076
				C150.186,33.799,155.491,14.51,142.992,11.357z"/>
		</g>
	</g>
	<g display="inline">
		<g>
			<path d="M104.251,124.341c1.987-1.4,4.149-2.572,6.294-3.704c1.017-0.537,2.049-1.042,3.085-1.541
				c0.703-0.339,1.414-0.661,2.125-0.983c0.269-0.122,2.814-1.194,0.755-0.34c3.395-1.407,6.877-2.593,10.393-3.656
				c20.104-6.076,41.3-5.484,61.479,0.175c12.442,3.489,17.716-15.808,5.317-19.286c-23.239-6.517-47.756-7.028-71.046-0.486
				c-9.744,2.737-20.144,6.665-28.497,12.551c-4.446,3.133-6.519,8.677-3.588,13.682C93.147,125.155,99.787,127.486,104.251,124.341
				L104.251,124.341z"/>
		</g>
	</g>
	<g display="inline">
		<g>
			<path d="M109.294,174.598c1.999-1.398,4.174-2.565,6.345-3.667c1.124-0.571,2.27-1.097,3.423-1.607
				c-2.69,1.19,1.6-0.587,2.322-0.845c3.094-1.104,6.283-1.913,9.514-2.495c2.851-0.514-2.1,0.204,0.823-0.121
				c0.893-0.099,1.791-0.149,2.688-0.198c1.843-0.101,3.689-0.036,5.528,0.092c3.061,0.213-1.964-0.379,1.107,0.124
				c0.959,0.157,1.905,0.384,2.849,0.611c0.967,0.233,1.914,0.539,2.859,0.846c-0.011-0.004,3.019,1.229,1.421,0.515
				c8.835,3.949,14.711,11.448,19.487,20.168c6.196,11.313,23.467,1.222,17.269-10.094c-10.891-19.885-29.709-34.242-53.209-32.063
				c-11.278,1.046-23.167,4.925-32.522,11.465c-4.458,3.117-6.511,8.69-3.588,13.682
				C98.198,175.426,104.819,177.727,109.294,174.598L109.294,174.598z"/>
		</g>
	</g>
	<g display="inline">
		<g>
			<path d="M72.256,223.591c12.445,13.883,28.034,25.545,43.427,35.87c34.861,23.385,74.777,38.416,116.451,43.431
				c17.251,2.076,34.712,2.034,51.985,0.267c-2.357-5.69-4.714-11.381-7.071-17.071c-1.92,1.906-3.935,3.719-5.954,5.518
				c-2.284,2.034-4.61,4.019-6.963,5.971c-1.373,1.138-2.76,2.26-4.155,3.372c-0.749,0.597-1.504,1.189-2.259,1.778
				c-1.508,1.177,1.988-1.529,0.453-0.35c-0.538,0.414-1.079,0.824-1.62,1.234c-7.664,5.803-15.648,11.188-23.933,16.064
				c-4.568,2.689-9.247,5.189-14.017,7.501c-2.334,1.131-4.698,2.198-7.082,3.22c2.863-1.228-1.131,0.443-1.828,0.718
				c-1.414,0.558-2.841,1.084-4.272,1.597c-5.094,1.824-10.306,3.312-15.597,4.443c-1.261,0.27-2.529,0.504-3.798,0.727
				c-0.782,0.137-5.101,0.725-1.788,0.302c-2.747,0.351-5.511,0.55-8.278,0.64c-2.545,0.083-5.092,0.018-7.632-0.146
				c-1.27-0.082-2.537-0.213-3.801-0.361c3.31,0.387-1.502-0.272-2.384-0.441c-2.533-0.485-5.029-1.147-7.489-1.918
				c-1.248-0.391-2.478-0.838-3.701-1.302c-0.528-0.201-2.668-1.106-0.059,0.007c-0.82-0.35-1.627-0.728-2.431-1.11
				c-2.479-1.177-4.863-2.544-7.18-4.011c-1.2-0.76-2.365-1.574-3.518-2.404c-0.381-0.275-2.338-1.792-0.292-0.192
				c-0.778-0.609-1.536-1.244-2.29-1.882c-2.365-2.001-4.58-4.173-6.705-6.424c-1.122-1.188-2.195-2.421-3.252-3.666
				c-0.544-0.641-1.071-1.296-1.599-1.95c-0.7-0.888-0.705-0.89-0.016-0.006c-0.351-0.463-0.699-0.929-1.042-1.398
				c-10.663-14.421-16.922-29.707-22.156-46.349c-5.271-16.762-8.763-34.059-11.438-51.406c-0.832-5.395-7.511-8.302-12.301-6.984
				c-5.705,1.569-7.814,6.919-6.984,12.301c9.029,58.549,34.645,143.644,108.819,139.532c39.984-2.217,77.076-26.76,106.265-52.548
				c2.182-1.928,4.355-3.88,6.422-5.932c5.74-5.698,1.927-17.991-7.071-17.071c-45.386,4.641-90.698-4.338-130.908-24.832
				c-14.816-7.551-28.898-16.549-42.106-26.645c1.745,1.334-1.827-1.444-2.397-1.899c-1.172-0.935-2.331-1.884-3.487-2.839
				c-2.227-1.84-4.416-3.726-6.578-5.642c-3.001-2.661-5.93-5.405-8.77-8.238c-1.182-1.179-2.36-2.371-3.475-3.615
				C77.772,199.826,63.675,214.019,72.256,223.591z"/>
		</g>
	</g>
	<g display="inline">
		<g>
			<path d="M340.513,196.974c-2.476-9.929-7.672-19.612-13.193-28.132c-13.07-20.171-31.985-36.058-53.696-46.224
				c-4.937-2.311-10.743-1.429-13.682,3.588c-2.564,4.377-1.349,11.371,3.588,13.682c19.289,9.031,35.996,22.805,47.055,39.873
				c1.935,2.987,3.691,6.087,5.326,9.247c0.691,1.336,1.339,2.693,1.971,4.057c0.284,0.614,0.556,1.234,0.828,1.853
				c0.77,1.756-0.874-2.162,0.153,0.406c0.906,2.266,1.773,4.595,2.364,6.968C324.346,214.8,343.634,209.492,340.513,196.974
				L340.513,196.974z"/>
		</g>
	</g>
	<g display="inline">
		<g>
			<path d="M303.855,231.723c-2.729-10.771-8.776-21.111-16.135-29.326c-15.947-17.803-40.352-19.911-61.822-11.862
				c-5.099,1.912-8.529,6.687-6.984,12.301c1.347,4.898,7.192,8.9,12.301,6.984c4.758-1.784,10.914-3.53,14.972-3.918
				c2.174-0.208,4.362-0.198,6.541-0.101c0.09,0.004,3.438,0.361,1.381,0.067c1.278,0.182,2.537,0.472,3.789,0.778
				c0.863,0.211,5.256,1.789,3.662,1.1c1.863,0.805,3.629,1.819,5.342,2.902c0.713,0.451,1.398,0.947,2.081,1.442
				c-1.89-1.367,0.852,0.762,1.178,1.049c1.403,1.236,2.696,2.594,3.943,3.986c0.52,0.58,1.012,1.183,1.505,1.786
				c-1.574-1.924,0.02,0.042,0.277,0.394c0.997,1.366,1.907,2.794,2.784,4.238c1.527,2.514,2.844,5.155,4.027,7.847
				c-1.387-3.156,0.017,0.093,0.305,0.853c0.319,0.84,0.613,1.689,0.894,2.542c0.245,0.744,0.48,1.495,0.673,2.254
				C287.736,249.535,307.024,244.231,303.855,231.723L303.855,231.723z"/>
		</g>
	</g>
	<g display="inline">
		<g>
			<path d="M414.492,216.643c11.613-4.478,23.227-8.955,34.841-13.433c2.659-1.025,5.296-2.249,8.066-2.944
				c0.894-0.225,1.796-0.413,2.7-0.594c0.72-0.144,4.851-0.753,1.945-0.376c3.826-0.496,7.69-0.603,11.54-0.421
				c7.048,0.333,15.431,3.026,21.531,8.903c0.554,0.534,3.66,4.839,2.587,1.909c0.052,0.142,0.104,0.284,0.156,0.426
				c0.314,0.857,0.628,1.714,0.942,2.572c3.279,8.947,6.557,17.894,9.836,26.841c10.818,29.519,21.635,59.038,32.453,88.557
				c4.103,11.197,8.207,22.394,12.31,33.591c0.974,2.657,1.948,5.314,2.921,7.971c0.124,0.337,0.247,0.675,0.371,1.012
				c2.76,7.532-0.896-2.298,0.331,0.819c0.378,0.961,0.718,1.937,1.051,2.914c6.96,20.426,7.036,42.727,1.086,63.539
				c-0.834,2.918-1.037,4.316-1.878,5.718c-0.653,1.089-1.307,2.178-1.96,3.267c-2.486,4.144-4.972,8.287-7.459,12.431
				c-15.568,25.946-31.136,51.893-46.704,77.839c-3.182,5.304-6.27,10.68-9.555,15.921c-0.553,0.881-2.541,3.462-0.105,0.311
				c-1.196,1.547-2.515,2.993-3.886,4.386c-0.833,0.846-1.706,1.652-2.59,2.443c-0.534,0.478-3.857,3.11-1.666,1.445
				c-2.775,2.109-5.765,3.918-8.851,5.532c-0.798,0.417-1.612,0.801-2.426,1.184c-2.751,1.295,1.829-0.696-1.078,0.475
				c-1.867,0.752-3.782,1.377-5.706,1.961c-4.687,1.422-8.862,2.13-13.11,2.486c-9.937,0.833-21.826,0.408-31.296-3.008
				c-8.375-3.021-16.751-6.043-25.126-9.064c-25.36-9.149-50.719-18.297-76.079-27.446c-1.198-0.432-3.281-1.382,1.021,0.511
				c-0.778-0.343-1.535-0.735-2.289-1.129c-4.288-2.241-8.329-4.951-12.215-7.824c-0.243-0.18-2.395-1.855-0.636-0.477
				c-0.704-0.552-1.396-1.119-2.089-1.687c-1.494-1.224-2.945-2.499-4.382-3.789c-3.576-3.211-6.933-6.657-10.152-10.223
				c-7.532-8.346-13.737-17.754-19.115-27.607c-10-18.32-16.351-38.826-23.853-58.245c-1.963-5.08-6.647-8.54-12.301-6.984
				c-4.859,1.337-8.951,7.21-6.984,12.301c11.107,28.749,20.483,58.99,39.275,83.85c13.524,17.891,30.753,34.22,52.124,41.93
				c26.947,9.721,53.893,19.442,80.84,29.164c9.99,3.604,19.096,7.021,29.688,8.587c20.448,3.023,41.671,0.941,59.703-9.771
				c14.851-8.823,21.965-21.566,30.484-35.763c15.568-25.946,31.136-51.893,46.704-77.839c4.699-7.831,9.558-15.003,12.378-23.729
				c7.506-23.223,7.311-49.369,0.505-72.741c-0.608-2.088-1.299-4.156-2.083-6.185c-0.413-1.07-0.883-2.14-1.33-3.185
				c1.725,4.031,1.205,2.929,0.87,2.016c-0.79-2.156-1.58-4.311-2.37-6.467c-3.865-10.546-7.729-21.091-11.594-31.637
				c-10.855-29.622-21.711-59.244-32.566-88.867c-3.555-9.702-7.111-19.404-10.666-29.105c-0.558-1.523-1.116-3.046-1.674-4.568
				c-3.954-10.789-16.005-18.27-26.167-22.2c-12.318-4.764-29.305-4.968-41.771-0.161c-13.289,5.123-26.578,10.247-39.866,15.37
				c-5.081,1.959-8.539,6.65-6.984,12.301C403.528,214.52,409.399,218.606,414.492,216.643L414.492,216.643z"/>
		</g>
	</g>
	<g display="inline">
		<g>
			<path d="M492.049,283.309c-8.797-4.971-19.114-7.914-28.964-9.804c-23.895-4.585-48.602-1.933-71.222,6.902
				c-5.073,1.981-8.544,6.632-6.984,12.301c1.333,4.844,7.217,8.97,12.301,6.984c19.343-7.555,40.5-10.54,60.588-6.902
				c6.543,1.185,12.979,3.028,19.177,5.43c2.826,1.095-1.417-0.659,1.03,0.417c0.697,0.306,1.386,0.63,2.072,0.96
				c0.643,0.31,1.285,0.629,1.907,0.981C493.198,306.932,503.275,289.653,492.049,283.309L492.049,283.309z"/>
		</g>
	</g>
	<g display="inline">
		<g>
			<path d="M406.025,352.194c8.786,7.367,19.743,12.813,30.979,15.059c24.413,4.88,44.692-7.824,57.991-27.707
				c7.193-10.755-10.139-20.755-17.269-10.094c-4.941,7.387-12.167,14.553-19.663,17.245c-6.677,2.398-12.348,2.134-18.489,0.668
				c-1.473-0.352-2.921-0.805-4.358-1.278c-0.831-0.273-1.649-0.585-2.466-0.895c-2.654-1.008,1.816,0.828-0.705-0.288
				c-2.468-1.092-4.849-2.379-7.167-3.758c-1.648-0.981-3.245-2.048-4.8-3.171c-2.244-1.621,1.939,1.627,0.089,0.076
				c-4.173-3.499-10.037-4.105-14.142,0C402.426,341.652,401.844,348.688,406.025,352.194L406.025,352.194z"/>
		</g>
	</g>
	<g display="inline">
		<g>
			<path d="M292,417.484c10.709,3.337,22.7,3.459,33.638,1.465c23.421-4.269,37.818-24.195,42.145-46.534
				c1.036-5.346-1.429-10.773-6.984-12.301c-4.944-1.36-11.264,1.63-12.301,6.984c-1.967,10.153-5.223,18.493-11.791,24.848
				c-0.656,0.635-1.356,1.221-2.055,1.807c1.625-1.361-0.611,0.405-0.818,0.548c-1.638,1.131-3.397,2.075-5.186,2.941
				c-2.493,1.207,1.898-0.712-0.654,0.28c-1.006,0.391-2.038,0.715-3.07,1.03c-1.757,0.536-3.558,0.92-5.364,1.25
				c-0.495,0.09-3.096,0.414-0.361,0.079c-0.739,0.091-1.481,0.151-2.223,0.212c-1.659,0.136-3.326,0.169-4.99,0.166
				c-1.537-0.003-3.074-0.085-4.606-0.196c-0.927-0.067-5.65-0.675-1.969-0.156c-2.715-0.382-5.471-0.892-8.094-1.709
				C284.969,394.351,279.728,413.66,292,417.484L292,417.484z"/>
		</g>
	</g>
	<g display="inline">
		<g>
			<path d="M508.363,444.913c-16.489-1.921-34.094,0.759-50.171,4.099c-39.833,8.275-76.355,28.278-107.122,54.554
				c5.69,2.357,11.381,4.714,17.071,7.071c0.093-3.238,0.378-6.476,0.69-9.698c0.152-1.566,0.325-3.13,0.511-4.693
				c0.103-0.87,0.214-1.738,0.328-2.607c-0.517,3.954,0.025-0.116,0.164-1.054c0.644-4.352,1.431-8.681,2.345-12.984
				c1.019-4.801,2.238-9.56,3.65-14.26c0.705-2.349,1.479-4.676,2.299-6.987c0.414-1.165,0.851-2.322,1.297-3.476
				c0.223-0.578,0.455-1.152,0.687-1.727c1.06-2.627-0.513,1.165,0.195-0.467c2.041-4.705,4.434-9.257,7.194-13.579
				c0.652-1.021,1.339-2.02,2.039-3.01c0.348-0.492,0.708-0.975,1.067-1.458c1.3-1.745-1.446,1.826-0.089,0.132
				c1.608-2.008,3.359-3.897,5.207-5.686c0.564-0.546,1.148-1.07,1.735-1.591c0.531-0.471,3.254-2.639,0.699-0.667
				c1.393-1.076,2.862-2.051,4.364-2.966c1.515-0.924,3.099-1.728,4.712-2.467c1.601-0.734-2.243,0.866,0.384-0.129
				c0.948-0.359,1.916-0.666,2.886-0.959c1.798-0.543,3.639-0.935,5.489-1.252c1.779-0.305-2.368,0.24,0.558-0.059
				c1.11-0.113,2.225-0.167,3.339-0.206c2.11-0.075,4.222,0.019,6.326,0.184c0.557,0.044,3.886,0.466,1.035,0.069
				c1.282,0.179,2.555,0.417,3.824,0.669c11.931,2.361,19.712,6.222,30.204,12.29c14.472,8.37,27.567,18.882,40.013,29.985
				c9.59,8.555,23.785-5.54,14.142-14.142c-16.598-14.807-34.449-28.968-54.568-38.702c-13.279-6.425-28.07-11.178-42.995-10.254
				c-24.069,1.491-42.017,17.885-52.477,38.659c-11.134,22.114-16.544,48.387-17.254,73.093
				c-0.268,9.328,10.807,12.421,17.071,7.071c28.613-24.436,62.524-41.979,99.431-49.646c3.227-0.671,6.476-1.237,9.732-1.749
				c0.351-0.055,4.272-0.602,2.354-0.351c1.567-0.205,3.138-0.379,4.709-0.545c4.711-0.497,9.445-0.785,14.18-0.89
				c4.227-0.094,8.536-0.104,12.745,0.386c5.427,0.632,10-5.027,10-10C518.363,448.985,513.776,445.544,508.363,444.913z"/>
		</g>
	</g>
</g>
<g id="Capa_4" display="none">
	<g display="inline">
		<g>
			<path d="M217.833,145c0,44.663,0,89.327,0,133.99c0,5.313,4.649,10.998,7.925,14.672c6.573,7.371,16.104,10.98,25.787,11.464
				c11.016,0.551,18.082-4.461,26.996-9.608c26.114-15.078,52.228-30.156,78.342-45.234c17.482-10.094,47.344-22.055,39.387-48.145
				c-3.747-12.285-13.783-17.687-24.071-23.07c-11.94-6.248-23.88-12.496-35.821-18.744c-23.053-12.063-46.106-24.126-69.159-36.189
				c-4.206-2.201-8.699-5.267-13.407-6.268c-17.657-3.755-31.72,7.315-35.621,24.472c-2.856,12.558,16.426,17.891,19.286,5.317
				c1.074-4.724,2.065-7.178,4.808-9.619c-1.568,1.395,0.433-0.138,0.773-0.331c2.274-1.288-1.889,0.607,0.489-0.188
				c0.696-0.233,1.419-0.375,2.137-0.519c-2.838,0.566-0.014,0.066,0.709,0.049c0.968-0.023,4.999,0.521,1.244-0.054
				c0.722,0.11,1.436,0.274,2.141,0.461c2.17,0.575-3.295-1.621-1.112-0.478c7.682,4.02,15.365,8.04,23.047,12.06
				c27.199,14.233,54.399,28.465,81.598,42.698c6.294,3.293,12.588,6.587,18.882,9.88c-0.497-0.26-1.89-1.572,0.867,0.895
				c0.906,0.811,1.875,1.764,2.594,2.752c-0.145-0.199,1.579,2.833,1.333,2.193c0.027,0.07,0.619,3.413,0.478,1.667
				c0.021,0.262-0.373,3.303-0.001,1.346c-0.033,0.173-1.039,3.094-0.232,1.233c-0.367,0.846-0.848,1.639-1.321,2.427
				c-0.314,0.5-0.645,0.989-0.994,1.465c0.7-0.894,0.7-0.919,0-0.075c-0.889,1.043-1.886,1.994-2.906,2.906
				c-2.137,1.911,0.648-0.418,0.187-0.086c-0.375,0.27-0.816,0.476-1.216,0.706c-22.11,12.766-44.22,25.532-66.33,38.298
				c-12.252,7.074-24.505,14.149-36.757,21.223c-3.344,1.931-6.687,3.861-10.031,5.792c-0.583,0.337-1.167,0.674-1.75,1.01
				c2.187-1.263-1.212-0.331-2.035-0.273c-3.03,0.214-4.387-0.052-6.588-0.631c-2.769-0.727-4.634-2.045-6.52-3.841
				c-0.55-0.524-1.056-1.092-1.56-1.658c-1.631-1.83,1.222,1.722-0.127-0.115c-0.73-0.993-1.369-2.052-1.961-3.131
				c-2.02-3.682,0.514,2.593,0.514,3.033c0-0.929,0-1.858,0-2.787c0-10.867,0-21.734,0-32.602c0-32.789,0-65.578,0-98.367
				C237.833,132.103,217.833,132.103,217.833,145z"/>
		</g>
	</g>
	<g display="inline">
		<g>
			<g>
				<path d="M569.404,378.321c10.504-8.163,12.91-24.582,12.93-36.782c0.009-5.311,0.018-10.622,0.027-15.932
					c0.043-25.832,0.086-51.665,0.129-77.497c0.093-55.645,0.185-111.29,0.278-166.935c0.007-3.916,0.404-8.076-0.43-11.938
					c-2.604-12.058-8.568-23.546-16.436-32.964C556.116,24.559,541.54,18.5,526.438,18.5c-6.062,0-12.125,0-18.187,0
					c-59.154,0-118.308,0-177.462,0c-16.152,0-32.303,0-48.455,0c-12.897,0-12.897,20,0,20c46.146,0,92.292,0,138.438,0
					c28.186,0,56.372,0,84.557,0c6.768,0,13.536,0,20.304,0c11.68,0,19.231,3.66,26.732,12.638c1.958,2.343-1.075-1.51,0.692,0.928
					c0.533,0.735,1.031,1.495,1.529,2.254c0.959,1.462,1.824,2.985,2.659,4.52c0.78,1.433,1.482,2.907,2.161,4.39
					c1.091,2.385-0.78-1.951,0.175,0.381c0.35,0.854,0.672,1.719,0.991,2.585c0.74,2.012,1.377,4.063,1.937,6.132
					c0.523,1.936,0.268,4.614,0.276-0.011c-0.007,3.918-0.013,7.835-0.02,11.753c-0.04,24.265-0.081,48.529-0.121,72.794
					c-0.096,57.383-0.191,114.767-0.287,172.15c-0.007,4.175-0.014,8.35-0.021,12.525c-0.009,5.199-0.413,9.936-2.037,14.905
					c-0.467,1.191-0.524,1.395-0.169,0.611c-0.372,0.869-0.816,1.706-1.261,2.539c-0.412,0.772-3.247,4.658-1.287,2.215
					c-0.682,0.851-1.453,1.698-2.318,2.371c-4.312,3.351-3.493,10.649,0,14.142C559.474,382.533,565.104,381.662,569.404,378.321
					L569.404,378.321z"/>
			</g>
		</g>
		<g>
			<g>
				<path d="M282.333,79.5c49.943,0,99.886,0,149.828,0c11.391,0,22.781,0,34.172,0c12.897,0,12.897-20,0-20
					c-49.943,0-99.886,0-149.828,0c-11.391,0-22.781,0-34.172,0C269.436,59.5,269.436,79.5,282.333,79.5L282.333,79.5z"/>
			</g>
		</g>
		<g>
			<g>
				<path d="M491.511,21.346c-6.51,5.6-12.033,12.448-17.228,19.237c-11.449,14.961-20.182,31.924-25.567,49.99
					c-3.394,11.387-5.103,23.363-5.441,35.226c-0.174,6.097,0.213,12.197,0.921,18.25c0.07,0.595,0.554,6.65,0.429,3.172
					c0.002,0.058,0.005,0.116,0.008,0.174c0.02,0.399,0.054,0.796,0.09,1.194c1.18,13.323,5.394,26.131,10.613,38.369
					c7.598,17.817,18.188,33.936,30.274,49.015c4.72,5.889,9.914,14.528,18.208,14.528c3.689,0,7.379,0,11.068,0
					c19.149,0,38.298,0,57.447,0c12.897,0,12.897-20,0-20c-23.222,0-46.444,0-69.667,0c2.357,0.976,4.714,1.953,7.071,2.929
					c-16.314-17.967-30.811-39.271-38.949-61.358c-2.342-6.355-4.212-12.902-5.475-19.557c-0.193-1.019-0.361-2.042-0.517-3.067
					c-0.384-2.521,0.314,2.723,0.009-0.021c-0.081-0.732-0.152-1.469-0.181-2.206c-0.229-5.662-1.262-11.273-1.371-16.976
					c-0.111-5.784,0.179-11.666,1.005-17.394c1.45-10.066,4.485-20.992,8.221-29.822c3.571-8.438,8.065-16.475,13.138-24.096
					c1.056-1.586,2.156-3.143,3.27-4.689c0.527-0.732,1.068-1.455,1.608-2.178c1.741-2.329-1.201,1.513,0.535-0.704
					c1.997-2.551,4.094-5.024,6.254-7.438c2.63-2.939,5.374-5.86,8.368-8.436c4.135-3.558,3.636-10.506,0-14.142
					C501.585,17.277,495.639,17.794,491.511,21.346L491.511,21.346z"/>
			</g>
		</g>
		<g>
			<g>
				<path d="M572.333,280.5c-22,0-44,0-66,0c1.682,0.455,3.365,0.91,5.047,1.365c-0.338-0.218-0.665-0.453-0.991-0.688
					c-1.821-1.308,1.798,1.436,0.335,0.265c-0.6-0.48-1.178-0.986-1.754-1.495c-1.248-1.105-2.41-2.301-3.53-3.533
					c-0.289-0.318-2.371-3.014-1.007-1.168c-0.692-0.936-1.304-1.928-1.9-2.927c-0.463-0.776-0.858-1.589-1.252-2.401
					c0.874,1.804-0.475-1.572-0.593-1.981c-0.166-0.618-0.308-1.241-0.425-1.87c0.107,1.053,0.107,0.962-0.002-0.27
					c-0.032-0.396,0.123-3.977-0.082-2.534c0.892-6.288,4.948-11.188,9.558-15.693c9.237-9.026-4.916-23.158-14.142-14.142
					c-14.262,13.937-20.717,33.57-8.926,51.21c4.95,7.405,12.447,15.861,21.927,15.861c21.246,0,42.491,0,63.737,0
					C585.231,300.5,585.231,280.5,572.333,280.5L572.333,280.5z"/>
			</g>
		</g>
		<g>
			<g>
				<path d="M499.262,283.429c-5.371,4.722-10.741,9.444-16.112,14.167c-4.096,3.601-3.668,10.475,0,14.142
					c4.037,4.037,10.052,3.596,14.142,0c5.371-4.722,10.741-9.444,16.112-14.167c4.096-3.601,3.668-10.475,0-14.142
					C509.367,279.391,503.352,279.833,499.262,283.429L499.262,283.429z"/>
			</g>
		</g>
	</g>
	<g display="inline">
		<g>
			<g>
				<path d="M41.854,364.179c-0.796-0.619-3.28-3.638-1.519-1.326c-0.966-1.268-1.762-2.653-2.511-4.056
					c-0.967-1.811-1.277-2.975-2.025-5.832c-1.051-4.015-1.011-8.112-1.018-12.226c-0.01-6.108-0.02-12.215-0.031-18.323
					c-0.044-26.695-0.089-53.39-0.133-80.085c-0.091-54.446-0.181-108.892-0.272-163.338c-0.003-1.955-0.007-3.909-0.01-5.864
					c0-0.27-0.001-0.541-0.001-0.811c0.008,4.621-0.235,1.949,0.276,0.011c0.547-2.074,1.214-4.114,1.937-6.132
					c0.241-0.673,1.904-4.691,0.851-2.259c0.75-1.735,1.593-3.427,2.475-5.097c3.493-6.615,7.62-11.73,12.872-15.28
					c6.841-4.624,13.331-5.06,21.961-5.06c8.487,0,16.974,0,25.461,0c60.004,0,120.007,0,180.011,0c11.535,0,23.07,0,34.605,0
					c12.897,0,12.897-20,0-20c-46.146,0-92.292,0-138.438,0c-28.186,0-56.372,0-84.557,0c-6.768,0-13.536,0-20.304,0
					c-14.062,0-26.718,4.585-37,14.288C21.905,44.659,14.316,62.165,14.345,79.337c0.037,22.169,0.074,44.337,0.111,66.506
					c0.098,59.04,0.197,118.081,0.295,177.121c0.01,6.072,0.02,12.144,0.03,18.216c0.021,12.332,2.3,28.88,12.931,37.141
					c4.3,3.341,9.931,4.211,14.142,0C45.347,374.828,46.166,367.53,41.854,364.179L41.854,364.179z"/>
			</g>
		</g>
		<g>
			<g>
				<path d="M314.783,59.5c-49.943,0-99.886,0-149.828,0c-11.391,0-22.781,0-34.172,0c-12.897,0-12.897,20,0,20
					c49.943,0,99.886,0,149.828,0c11.391,0,22.781,0,34.172,0C327.68,79.5,327.68,59.5,314.783,59.5L314.783,59.5z"/>
			</g>
		</g>
		<g>
			<g>
				<path d="M91.463,35.488c1.679,1.444,3.246,3.027,4.793,4.609c1.693,1.733,3.324,3.526,4.922,5.346
					c0.979,1.115,1.932,2.252,2.877,3.395c0.512,0.619,1.014,1.246,1.516,1.873c0.347,0.436,0.692,0.874,1.034,1.313
					c-0.691-0.893-0.685-0.88,0.016,0.041c11.239,14.859,19.319,31.053,23.86,48.865c4.176,16.381,3.751,32.874,1.709,49.521
					c0.502-4.096,0.055-0.501-0.1,0.442c-0.188,1.14-0.409,2.275-0.638,3.407c-0.653,3.224-1.49,6.408-2.412,9.564
					c-2.616,8.957-5.696,16.196-9.824,24.336c-8.385,16.534-19.4,31.531-31.837,45.228c2.357-0.976,4.714-1.953,7.071-2.929
					c-23.222,0-46.444,0-69.667,0c-12.897,0-12.897,20,0,20c23.069,0,46.139,0,69.208,0c5.987,0,9.168-4.68,12.716-8.773
					c5.261-6.069,10.184-12.45,14.86-18.978c7.064-9.86,13.202-20.389,18.283-31.402c6.111-13.244,10.728-27.084,12.424-41.601
					c0.082-0.706,0.148-1.414,0.195-2.123c0.009-0.135,0.016-0.269,0.022-0.404c-0.246,1.949-0.171,1.417,0.225-1.596
					c0.203-1.566,0.386-3.132,0.55-4.703c0.972-9.301,0.74-18.702-0.385-27.975c-2.111-17.397-7.47-33.929-15.464-49.506
					c-7.846-15.289-18.677-30.794-31.812-42.094c-4.128-3.551-10.074-4.069-14.142,0C87.826,24.982,87.327,31.93,91.463,35.488
					L91.463,35.488z"/>
			</g>
		</g>
		<g>
			<g>
				<path d="M24.783,300.5c21.126,0,42.251,0,63.377,0c9.692,0,16.376-7.828,21.793-15.159c4.722-6.39,7.284-14.686,6.879-22.614
					c-0.592-11.562-7.266-21.436-15.311-29.298c-9.226-9.016-23.379,5.116-14.142,14.142c4.76,4.652,8.364,9.345,9.558,15.693
					c-0.329-1.751-0.045,1.487-0.044,1.525c-0.01,0.669-0.049,1.335-0.117,2c0.136-1.038,0.097-0.964-0.117,0.221
					c-0.255,1.232-0.674,2.425-1.108,3.602c0.697-1.89-0.767,1.351-0.966,1.706c-0.428,0.766-0.918,1.496-1.406,2.225
					c-0.911,1.363,0.715-0.739-0.98,1.274c-1.243,1.476-2.626,2.832-4.052,4.129c-0.437,0.398-0.89,0.778-1.343,1.158
					c-2.014,1.692,1.317-0.967,0.207-0.136c-0.415,0.311-0.839,0.614-1.274,0.895c1.682-0.455,3.365-0.91,5.047-1.365
					c-22,0-44,0-66,0C11.885,280.5,11.885,300.5,24.783,300.5L24.783,300.5z"/>
			</g>
		</g>
		<g>
			<g>
				<path d="M83.712,297.571c5.371,4.722,10.741,9.444,16.112,14.167c4.09,3.596,10.105,4.037,14.142,0
					c3.668-3.668,4.096-10.541,0-14.142c-5.371-4.722-10.741-9.444-16.112-14.167c-4.09-3.596-10.105-4.037-14.142,0
					C80.044,287.097,79.616,293.97,83.712,297.571L83.712,297.571z"/>
			</g>
		</g>
	</g>
	<g display="inline">
		<g>
			<g>
				<path d="M532.425,438.379c-0.229,20.091-12.373,38.904-31.311,46.304c-19.806,7.738-41.691,2.052-55.909-13.443
					c-13.794-15.034-15.967-38.265-6.625-56.097c9.857-18.813,30.174-28.299,50.931-26.162
					C514.107,391.513,532.153,414.522,532.425,438.379c0.147,12.889,20.147,12.903,20,0c-0.277-24.294-12.665-46.284-33.082-59.363
					c-20.652-13.23-47.264-13.296-68.883-2.566c-21.617,10.728-34.94,32.882-37.363,56.412
					c-2.506,24.336,9.643,47.376,28.556,61.943c20.858,16.064,50.09,16.954,73.158,5.505c23.155-11.492,37.323-36.464,37.614-61.93
					C552.573,425.476,532.572,425.49,532.425,438.379z"/>
			</g>
		</g>
		<g>
			<g>
				<path d="M409.667,603.5c47.76,0,95.52,0,143.279,0c1.351,0,2.703,0,4.054,0c5.911,0,9.392-4.585,10-10
					c0.891-7.94,0.768-16.075,0.183-24.026c-1.128-15.349-4.388-31.73-13.541-44.458c-8.738-12.151-22.154-19.515-37.235-19.515
					c-13.873,0-27.746,0-41.619,0c-15.559,0-30.348-1.542-44.855,4.918c-32.448,14.451-34.145,55.623-29.91,85.74
					c0.76,5.408,7.564,8.287,12.301,6.984c5.757-1.583,7.743-6.908,6.984-12.301c-0.797-5.667-1.18-11.395-1.278-17.115
					c-0.045-2.624,0.041-5.249,0.182-7.869c0.134-2.491,0.463-5.321,0.681-6.684c0.639-3.993,1.668-7.915,3.005-11.728
					c0.079-0.225,1.199-3.034,0.316-0.955c0.335-0.789,0.709-1.562,1.082-2.333c0.819-1.69,1.772-3.311,2.783-4.892
					c0.408-0.638,0.847-1.254,1.287-1.87c1.464-2.052-1.338,1.632,0.224-0.27c0.875-1.065,1.827-2.064,2.803-3.035
					c0.918-0.914,1.9-1.76,2.901-2.581c-2.381,1.952,1.167-0.766,1.904-1.234c0.946-0.602,1.929-1.143,2.922-1.664
					c0.753-0.395,4.248-1.905,0.915-0.517c1.802-0.75,3.667-1.344,5.555-1.834c1.337-0.347,2.696-0.61,4.062-0.815
					c-4.339,0.649-0.954,0.127,0.202,0.069c1.781-0.089,3.579-0.015,5.36-0.015c14.655,0,29.309,0,43.964,0
					c5.104,0,10.209,0,15.313,0c1.428,0,2.856,0,4.284,0c1.698,0,1.667,0.038,2.57,0.195c1.591,0.278,3.148,0.715,4.687,1.196
					c0.59,0.193,1.174,0.402,1.752,0.626c-1.986-0.74,0.69,0.37,0.911,0.481c1.31,0.657,2.546,1.451,3.756,2.274
					c0.924,0.674,0.938,0.675,0.041,0.003c0.671,0.536,1.3,1.122,1.929,1.706c1.046,0.972,1.998,2.04,2.925,3.125
					c0.716,0.884,0.724,0.885,0.025,0.003c0.518,0.69,0.993,1.41,1.469,2.129c0.799,1.208,1.507,2.474,2.194,3.748
					c0.416,0.771,0.794,1.562,1.171,2.352c0.115,0.241,1.241,2.921,0.394,0.846c2.23,5.465,3.622,11.257,4.626,17.06
					c0.096,0.571,0.188,1.143,0.276,1.716c0.447,2.855-0.248-2.096,0.109,0.739c0.174,1.381,0.31,2.766,0.438,4.152
					c0.261,2.842,0.405,5.694,0.491,8.546c0.17,5.679,0.095,11.449-0.54,17.103c3.333-3.333,6.667-6.667,10-10
					c-47.76,0-95.52,0-143.279,0c-1.351,0-2.703,0-4.054,0C396.769,583.5,396.769,603.5,409.667,603.5z"/>
			</g>
		</g>
	</g>
	<g display="inline">
		<g>
			<g>
				<path d="M345.425,439.379c-0.229,20.091-12.373,38.904-31.311,46.304c-19.806,7.738-41.691,2.052-55.909-13.443
					c-13.794-15.034-15.967-38.265-6.625-56.097c9.857-18.813,30.174-28.299,50.931-26.162
					C327.107,392.513,345.153,415.522,345.425,439.379c0.147,12.889,20.147,12.903,20,0c-0.277-24.294-12.665-46.284-33.082-59.363
					c-20.652-13.23-47.264-13.296-68.883-2.566c-21.617,10.728-34.94,32.882-37.363,56.412
					c-2.506,24.336,9.643,47.376,28.556,61.943c20.858,16.064,50.09,16.954,73.158,5.505c23.155-11.492,37.324-36.464,37.614-61.93
					C365.573,426.476,345.572,426.49,345.425,439.379z"/>
			</g>
		</g>
		<g>
			<g>
				<path d="M222.667,604.5c47.76,0,95.52,0,143.279,0c1.351,0,2.703,0,4.054,0c5.911,0,9.392-4.585,10-10
					c0.891-7.94,0.768-16.075,0.183-24.026c-1.128-15.349-4.388-31.73-13.541-44.458c-8.738-12.151-22.154-19.515-37.235-19.515
					c-13.873,0-27.746,0-41.619,0c-15.559,0-30.348-1.542-44.855,4.918c-32.448,14.451-34.145,55.623-29.91,85.74
					c0.76,5.408,7.564,8.287,12.301,6.984c5.757-1.583,7.743-6.908,6.984-12.301c-0.797-5.667-1.18-11.395-1.278-17.115
					c-0.045-2.624,0.041-5.249,0.182-7.869c0.134-2.491,0.463-5.321,0.681-6.684c0.639-3.993,1.668-7.915,3.005-11.728
					c0.079-0.225,1.199-3.034,0.316-0.955c0.335-0.789,0.709-1.562,1.082-2.333c0.818-1.69,1.772-3.311,2.783-4.892
					c0.408-0.638,0.847-1.254,1.287-1.87c1.464-2.052-1.338,1.632,0.224-0.27c0.875-1.065,1.827-2.064,2.803-3.035
					c0.918-0.914,1.9-1.76,2.901-2.581c-2.381,1.952,1.167-0.766,1.904-1.234c0.946-0.602,1.929-1.143,2.922-1.664
					c0.753-0.395,4.248-1.905,0.915-0.517c1.802-0.75,3.667-1.344,5.555-1.834c1.337-0.347,2.696-0.61,4.062-0.815
					c-4.339,0.649-0.954,0.127,0.202,0.069c1.781-0.089,3.579-0.015,5.36-0.015c14.655,0,29.309,0,43.964,0
					c5.104,0,10.209,0,15.313,0c1.428,0,2.856,0,4.284,0c1.698,0,1.667,0.038,2.57,0.195c1.591,0.278,3.148,0.715,4.688,1.196
					c0.59,0.193,1.173,0.402,1.752,0.626c-1.986-0.74,0.69,0.37,0.911,0.481c1.31,0.657,2.546,1.451,3.756,2.274
					c0.924,0.674,0.938,0.675,0.041,0.003c0.671,0.536,1.3,1.122,1.929,1.706c1.046,0.972,1.998,2.04,2.925,3.125
					c0.716,0.884,0.724,0.885,0.025,0.003c0.518,0.69,0.993,1.41,1.469,2.129c0.799,1.208,1.507,2.474,2.194,3.748
					c0.416,0.771,0.794,1.562,1.171,2.352c0.115,0.241,1.241,2.921,0.394,0.846c2.23,5.465,3.622,11.257,4.626,17.06
					c0.096,0.571,0.188,1.143,0.276,1.716c0.447,2.855-0.248-2.096,0.109,0.739c0.174,1.381,0.31,2.766,0.437,4.152
					c0.261,2.842,0.405,5.694,0.491,8.546c0.17,5.679,0.095,11.449-0.54,17.103c3.333-3.333,6.667-6.667,10-10
					c-47.76,0-95.52,0-143.279,0c-1.351,0-2.703,0-4.054,0C209.769,584.5,209.769,604.5,222.667,604.5z"/>
			</g>
		</g>
	</g>
	<g display="inline">
		<g>
			<g>
				<path d="M158.425,439.379c-0.229,20.091-12.373,38.904-31.311,46.304c-19.806,7.738-41.691,2.052-55.909-13.443
					c-13.793-15.034-15.967-38.265-6.625-56.097c9.857-18.813,30.174-28.299,50.931-26.162
					C140.107,392.513,158.153,415.522,158.425,439.379c0.147,12.889,20.147,12.903,20,0c-0.277-24.294-12.665-46.284-33.082-59.363
					c-20.652-13.23-47.264-13.296-68.883-2.566c-21.617,10.728-34.94,32.882-37.363,56.412
					c-2.506,24.336,9.643,47.376,28.556,61.943c20.858,16.064,50.09,16.954,73.158,5.505c23.155-11.492,37.324-36.464,37.614-61.93
					C178.573,426.476,158.572,426.49,158.425,439.379z"/>
			</g>
		</g>
		<g>
			<g>
				<path d="M35.667,604.5c47.76,0,95.52,0,143.279,0c1.351,0,2.703,0,4.054,0c5.911,0,9.392-4.585,10-10
					c0.891-7.94,0.768-16.075,0.183-24.026c-1.128-15.349-4.388-31.73-13.541-44.458c-8.738-12.151-22.154-19.515-37.235-19.515
					c-13.873,0-27.746,0-41.619,0c-15.559,0-30.348-1.542-44.855,4.918c-32.448,14.451-34.145,55.623-29.91,85.74
					c0.76,5.408,7.564,8.287,12.301,6.984c5.757-1.583,7.743-6.908,6.984-12.301c-0.797-5.667-1.18-11.395-1.278-17.115
					c-0.045-2.624,0.041-5.249,0.182-7.869c0.134-2.491,0.463-5.321,0.681-6.684c0.639-3.993,1.668-7.915,3.005-11.728
					c0.079-0.225,1.199-3.034,0.316-0.955c0.335-0.789,0.709-1.562,1.082-2.333c0.819-1.69,1.772-3.311,2.783-4.892
					c0.408-0.638,0.847-1.254,1.287-1.87c1.464-2.052-1.338,1.632,0.224-0.27c0.875-1.065,1.827-2.064,2.803-3.035
					c0.918-0.914,1.9-1.76,2.901-2.581c-2.381,1.952,1.167-0.766,1.904-1.234c0.946-0.602,1.929-1.143,2.922-1.664
					c0.753-0.395,4.248-1.905,0.915-0.517c1.802-0.75,3.667-1.344,5.555-1.834c1.337-0.347,2.696-0.61,4.062-0.815
					c-4.339,0.649-0.954,0.127,0.202,0.069c1.781-0.089,3.579-0.015,5.36-0.015c14.655,0,29.309,0,43.964,0
					c5.104,0,10.209,0,15.313,0c1.428,0,2.856,0,4.284,0c1.698,0,1.667,0.038,2.57,0.195c1.591,0.278,3.148,0.715,4.688,1.196
					c0.59,0.193,1.174,0.402,1.752,0.626c-1.986-0.74,0.69,0.37,0.911,0.481c1.31,0.657,2.546,1.451,3.756,2.274
					c0.924,0.674,0.938,0.675,0.041,0.003c0.671,0.536,1.3,1.122,1.929,1.706c1.046,0.972,1.998,2.04,2.925,3.125
					c0.716,0.884,0.724,0.885,0.025,0.003c0.518,0.69,0.993,1.41,1.469,2.129c0.799,1.208,1.507,2.474,2.194,3.748
					c0.416,0.771,0.794,1.562,1.171,2.352c0.115,0.241,1.241,2.921,0.394,0.846c2.23,5.465,3.622,11.257,4.626,17.06
					c0.096,0.571,0.188,1.143,0.276,1.716c0.447,2.855-0.248-2.096,0.109,0.739c0.174,1.381,0.31,2.766,0.437,4.152
					c0.261,2.842,0.405,5.694,0.491,8.546c0.17,5.679,0.095,11.449-0.54,17.103c3.333-3.333,6.667-6.667,10-10
					c-47.76,0-95.52,0-143.279,0c-1.351,0-2.703,0-4.054,0C22.769,584.5,22.769,604.5,35.667,604.5z"/>
			</g>
		</g>
	</g>
</g>
<g id="Capa_5">
	<g>
		<g>
			<path d="M542.833,415.5c-0.083,1.541-0.918,2-2.681,2c-1.23,0-2.459,0-3.689,0c-5.384,0-10.767,0-16.151,0
				c-20.341,0-40.682,0-61.023,0c-61.978,0-123.957,0-185.935,0c-57.996,0-115.992,0-173.988,0c-15.363,0-30.726,0-46.089,0
				c-2.148,0-4.296,0-6.444,0c-1.668,0-2-1.062-2-2.935c0-1.669,0-3.338,0-5.008c0-48.551,0-97.103,0-145.654
				c0-58.724,0-117.447,0-176.171c0-7.601,0-15.202,0-22.802c0-1.944,0-3.887,0-5.831c0-1.034-0.017-2.349,0.163-2.569
				c1.235-1.516,4.436-1.031,7.082-1.031c5.678,0,11.355,0,17.033,0c50.089,0,100.179,0,150.268,0c64.756,0,129.513,0,194.269,0
				c40.57,0,81.141,0,121.711,0c1.64,0,5.832-0.336,6.444,0.163c1.71,1.392,1.031,6.057,1.031,8.958c0,19.03,0,38.059,0,57.089
				c0,63.074,0,126.147,0,189.221C542.833,345.787,542.833,380.643,542.833,415.5c0,12.897,20,12.897,20,0
				c0-37.329,0-74.657,0-111.986c0-62.667,0-125.333,0-188c0-17.716,0-35.433,0-53.149c0-8.985-1.547-17.719-9.866-23.184
				c-5.28-3.469-10.801-3.681-16.715-3.681c-39.69,0-79.381,0-119.071,0c-64.653,0-129.307,0-193.96,0c-50.763,0-101.527,0-152.29,0
				c-8.437,0-16.975-0.384-25.405,0.07C34.026,36.19,24.833,46.128,24.833,57.593c0,1.045,0,2.09,0,3.135c0,6.081,0,12.161,0,18.242
				c0,56.341,0,112.683,0,169.024c0,52.088,0,104.175,0,156.263c0,3.688,0,7.376,0,11.063c0,13.008,10.76,22.181,23.28,22.181
				c11.494,0,22.989,0,34.483,0c54.338,0,108.676,0,163.014,0c63.76,0,127.519,0,191.279,0c34.329,0,68.657,0,102.986,0
				c12.776,0,22.276-9.334,22.958-22C563.528,402.606,543.524,402.674,542.833,415.5z"/>
		</g>
	</g>
	<g>
		<g>
			<path d="M514.833,346.261c-0.396,7.493-6.671,7.239-12.014,7.239c-6.115,0-12.231,0-18.346,0c-22.582,0-45.165,0-67.747,0
				c-63.928,0-127.855,0-191.783,0c-45.812,0-91.624,0-137.436,0c-2.557,0-5.114,0-7.671,0c-8.254,0-7.003-9.453-7.003-14.947
				c0-23.066,0-46.132,0-69.198c0-56.679,0-113.357,0-170.036c0-4.137-1.165-11.249,1.627-14.745C77.124,81.24,82.055,82,85.847,82
				c16.541,0,33.082,0,49.623,0c60.773,0,121.546,0,182.319,0c54.562,0,109.124,0,163.686,0c6.604,0,13.209,0,19.813,0
				c3.204,0,7.164-0.552,10.079,0.988c4.828,2.552,3.467,10.986,3.467,15.508c0,9.682,0,19.364,0,29.046
				c0,60.626,0,121.251,0,181.877C514.833,321.7,514.833,333.98,514.833,346.261c0,6.449,10,6.449,10,0c0-45.166,0-90.333,0-135.499
				c0-29.644,0-59.288,0-88.933c0-8.767,0-17.533,0-26.3c0-8.36-0.495-15.865-8.42-21.175C512.268,71.576,507.069,72,502.33,72
				c-6.28,0-12.559,0-18.839,0c-22.814,0-45.628,0-68.442,0c-64.003,0-128.006,0-192.008,0c-45.369,0-90.739,0-136.108,0
				c-2.8,0-5.61-0.082-8.407,0.072c-8.908,0.489-15.692,8.61-15.692,17.296c0,1.429,0,2.859,0,4.288c0,21.135,0,42.271,0,63.406
				c0,58.18,0,116.36,0,174.54c0,4.825,0,9.65,0,14.475c0,10.589,8.603,17.423,18.609,17.423c13.167,0,26.335,0,39.502,0
				c58.296,0,116.593,0,174.889,0c57.779,0,115.557,0,173.336,0c10.522,0,21.043,0,31.565,0c2.166,0,4.332,0,6.497,0
				c9.934,0,17.088-7.518,17.602-17.239C525.174,339.814,515.172,339.847,514.833,346.261z"/>
		</g>
	</g>
	<g>
		<g>
			<path d="M184.333,253.957c-0.41,6.92-6.705,6.543-11.705,6.543c-6.875,0-13.75,0-20.625,0c-12.196,0-24.391,0-36.587,0
				c-6.113,0-6.584-5.657-6.584-10.181c0-6.409,0-12.818,0-19.227c0-13.436,0-26.872,0-40.307c0-4.967,3.279-7.285,7.982-7.285
				c5.588,0,11.176,0,16.763,0c14.009,0,28.019,0,42.028,0c4.471,0,8.727,1.379,8.727,6.751c0,4.941,0,9.882,0,14.823
				c0,14.734,0,29.469,0,44.203C184.333,250.838,184.333,252.398,184.333,253.957c0,6.449,10,6.449,10,0c0-11.234,0-22.467,0-33.701
				c0-7.425,0-14.851,0-22.276c0-4.103,0.251-8.246-0.48-12.299c-2.727-15.121-22.38-12.181-33.361-12.181
				c-14.17,0-28.34,0-42.511,0c-6.858,0-12.427,1.832-16.691,7.599c-2.987,4.04-2.457,9.536-2.457,14.275
				c0,14.918,0,29.836,0,44.754c0,4.503,0,9.007,0,13.51c0,8.96,7.298,16.862,16.421,16.862c11.596,0,23.192,0,34.788,0
				c8.381,0,16.762,0,25.143,0c10.192,0,18.503-5.65,19.149-16.543C194.715,247.513,184.713,247.55,184.333,253.957z"/>
		</g>
	</g>
	<g>
		<g>
			<path d="M306.333,253.957c-0.41,6.92-6.705,6.543-11.705,6.543c-6.875,0-13.75,0-20.625,0c-12.196,0-24.391,0-36.587,0
				c-6.113,0-6.584-5.657-6.584-10.181c0-6.409,0-12.818,0-19.227c0-13.436,0-26.872,0-40.307c0-4.967,3.279-7.285,7.982-7.285
				c5.588,0,11.176,0,16.763,0c14.009,0,28.019,0,42.028,0c4.471,0,8.727,1.379,8.727,6.751c0,4.941,0,9.882,0,14.823
				c0,14.734,0,29.469,0,44.203C306.333,250.838,306.333,252.398,306.333,253.957c0,6.449,10,6.449,10,0c0-11.234,0-22.467,0-33.701
				c0-7.425,0-14.851,0-22.276c0-4.103,0.251-8.246-0.48-12.299c-2.727-15.121-22.38-12.181-33.361-12.181
				c-14.17,0-28.34,0-42.511,0c-6.858,0-12.427,1.832-16.691,7.599c-2.987,4.04-2.457,9.536-2.457,14.275
				c0,14.918,0,29.836,0,44.754c0,4.503,0,9.007,0,13.51c0,8.96,7.298,16.862,16.421,16.862c11.596,0,23.192,0,34.788,0
				c8.381,0,16.762,0,25.143,0c10.192,0,18.503-5.65,19.149-16.543C316.715,247.513,306.713,247.55,306.333,253.957z"/>
		</g>
	</g>
	<rect x="478.333" y="384" stroke="#000000" stroke-width="2" stroke-miterlimit="10" width="15" height="15"/>
	<rect x="512.333" y="384" stroke="#000000" stroke-width="2" stroke-miterlimit="10" width="15" height="15"/>
	<g>
		<g>
			<path d="M371.333,174c-6.173,0-12.346,0-18.519,0c-6.341,0-12.481,6.316-12.481,12.679c0,10.106,0,20.212,0,30.318
				c0,13.926,0,27.852,0,41.779c0,4.652-0.382,8.841,3.988,11.917c4.432,3.119,10.43,2.307,15.555,2.307c12.486,0,24.971,0,37.457,0
				c6.449,0,6.449-10,0-10c-12.486,0-24.971,0-37.457,0c-2.406,0-4.812,0-7.219,0c-0.432,0-0.864,0-1.296,0
				c-1.808,0-1.029-0.849-1.029,0.895c0-4.901,0-9.803,0-14.704c0-11.529,0-23.058,0-34.588c0-6.706,0-13.412,0-20.118
				c0-2.529,0-5.059,0-7.588c0-1.013,0.847-1.648,1.536-2.299c0.447-0.423,1.02-0.723,1.544-1.038c1.505-0.904-3.44,0.44-1.519,0.44
				c6.48,0,12.96,0,19.44,0C377.782,184,377.782,174,371.333,174L371.333,174z"/>
		</g>
	</g>
	<g>
		<g>
			<path d="M401.004,187.821c28.167,7.667,56.333,15.333,84.5,23c-0.398-3.046-0.796-6.092-1.194-9.139
				c-6.901,3.152-13.802,6.305-20.703,9.457c-4.657,2.127-9.314,4.255-13.971,6.382c-2.195,1.003-6.401,2.075-7.62,4.455
				c-7,13.667-14,27.333-21,41c3.046,0.398,6.092,0.796,9.139,1.194c-7.667-27.5-15.333-55-23-82.5
				c-1.729-6.203-11.378-3.565-9.643,2.658c7.667,27.5,15.333,55,23,82.5c1.114,3.996,7.117,5.142,9.139,1.194
				c6.983-13.634,13.966-27.268,20.95-40.902c-0.871,1.7-2.617,2.094-0.509,1.132c1.531-0.699,3.061-1.398,4.592-2.098
				c4.657-2.127,9.314-4.255,13.971-6.382c6.901-3.152,13.802-6.305,20.703-9.457c4.081-1.864,2.687-8.082-1.194-9.139
				c-28.167-7.667-56.333-15.333-84.5-23C397.43,176.482,394.789,186.13,401.004,187.821z"/>
		</g>
	</g>
	<g>
		<g>
			<path d="M223.333,432c0,27,0,54,0,81c0,5.451,4.549,10,10,10c47.631,0,95.263,0,142.894,0c1.688,0,3.333-0.017,5.012,0.157
				c1.898,0.197-2.703-0.399-0.538-0.077c0.894,0.133,1.78,0.308,2.665,0.488c1.851,0.378,3.664,0.911,5.45,1.523
				c2.702,0.926-1.774-0.879,0.875,0.34c1.097,0.505,2.133,1.123,3.153,1.764c0.475,0.299,1.857,1.671,2.199,2.194
				c1.496,2.29-0.351-1.573,0.58,1.114c0.104,0.301,0.37,2.924,0.377,1.536c-0.004,0.742-0.007,1.483-0.011,2.225
				c-0.019,3.76-0.038,7.52-0.057,11.28c-0.033,6.485-0.065,12.971-0.098,19.456c3.333-3.333,6.667-6.667,10-10
				c-47.787,0-95.573,0-143.36,0c-27.047,0-54.093,0-81.14,0c3.333,3.333,6.667,6.667,10,10c0-7.601,0-15.201,0-22.802
				c0-3.012,0-6.024,0-9.036c0,3.117-0.527,2.861,0.152,0.75c0.182-0.567,1.182-3.07,0.094-0.495
				c0.418-0.989,0.912-1.942,1.418-2.888c1.969-3.682,4.093-6.092,8.017-7.337c3.47-1.102-1.11-0.207,0.193-0.187
				c0.513,0.008,1.025,0.016,1.538,0.023c1.924,0.029,3.848,0.054,5.773,0.078c8.944,0.111,18.621,1.158,27.475-0.465
				c5.366-0.984,8.333-7.398,6.984-12.301c-1.539-5.594-6.945-7.966-12.301-6.984c4.782-0.877,0.032-0.191-1.347-0.167
				c-2.304,0.04-4.608,0.034-6.912,0.03c-5.468-0.009-10.936-0.073-16.404-0.145c-12.508-0.165-22.482,5.176-29.377,15.815
				c-4.372,6.746-5.303,12.974-5.303,20.688c0,8.474,0,16.948,0,25.421c0,5.451,4.549,10,10,10c47.787,0,95.573,0,143.36,0
				c27.047,0,54.093,0,81.14,0c5.472,0,9.972-4.549,10-10c0.056-11,0.111-22,0.167-33c0.096-19.094-20.016-27.755-36.161-28.97
				c-5.649-0.425-11.465-0.03-17.124-0.03c-14.317,0-28.633,0-42.95,0c-28.811,0-57.621,0-86.432,0c3.333,3.333,6.667,6.667,10,10
				c0-27,0-54,0-81C243.333,419.103,223.333,419.103,223.333,432L223.333,432z"/>
		</g>
	</g>
	<g>
		<g>
			<path d="M345.333,432c0,27,0,54,0,81c0,12.897,20,12.897,20,0c0-27,0-54,0-81C365.333,419.103,345.333,419.103,345.333,432
				L345.333,432z"/>
		</g>
	</g>
</g>
</svg>
