<?xml version="1.0" encoding="utf-8"?>
<!-- Generator: Adobe Illustrator 17.0.1, SVG Export Plug-In . SVG Version: 6.00 Build 0)  -->
<!DOCTYPE svg PUBLIC "-//W3C//DTD SVG 1.0//EN" "http://www.w3.org/TR/2001/REC-SVG-20010904/DTD/svg10.dtd">
<svg version="1.0" id="Capa_2" xmlns="http://www.w3.org/2000/svg" xmlns:xlink="http://www.w3.org/1999/xlink" x="0px" y="0px"
	 width="594.333px" height="617px" viewBox="0 0 594.333 617" enable-background="new 0 0 594.333 617" xml:space="preserve">
<g>
	<g>
		<path d="M144.321,6.536c-29.17-7.358-66.408,4.598-77.265,34.735c-8.213,22.799-16.426,45.598-24.64,68.397
			c-9.648,26.782-19.297,53.565-28.945,80.347c-9.297,25.807-14.458,54.461-5.857,81.245c2.928,9.119,8.346,16.822,13.285,24.926
			c7.926,13.004,15.853,26.008,23.779,39.012c10.45,17.145,21.592,34.043,31.354,51.59c6.606,11.874,16.698,21.894,27.962,29.337
			c8.357,5.522,18.247,9.273,28.118,10.856c6.147,0.986,12.233,1.45,18.447,1.103c4.24-0.237,9.16-0.374,13.159-1.758
			c24.221-8.384,48.442-16.768,72.663-25.153c19.381-6.709,37.87-12.625,55.454-23.406c19.965-12.241,38.316-27.93,50.995-47.794
			c3.895-6.103,5.889-13.971,8.358-20.717c16.878-46.113,33.767-92.222,50.634-138.339c4.564-12.479,4.888-26.368,3.048-39.356
			c-2.598-18.338-16.272-37.86-34.06-44.207c-16.544-5.903-33.088-11.807-49.632-17.71C266.461,50.119,211.744,30.594,157.027,11.07
			C152.792,9.558,148.556,8.047,144.321,6.536c-7.706-2.75-16.405,3.036-18.452,10.477c-2.29,8.326,2.783,15.707,10.477,18.452
			c43.769,15.618,87.537,31.236,131.306,46.854c26,9.277,51.999,18.555,77.999,27.832c5.655,2.018,11.309,4.035,16.964,6.053
			c1.346,0.48,0.863,0.95-1.6-0.509c1.208,0.716,2.358,1.523,3.504,2.331c-2.562-1.805,0.78,0.726,1.074,0.985
			c0.942,0.831,1.814,1.738,2.684,2.643c0.553,0.592,1.09,1.2,1.609,1.822c-1.102-1.488-1.164-1.564-0.189-0.227
			c1.328,1.833,2.433,3.817,3.454,5.832c1.696,3.348-1.13-3.038,0.21,0.409c0.385,0.99,0.701,2.006,1.017,3.019
			c0.615,1.972,1.039,4,1.404,6.031c0.633,3.517-0.38-3.531-0.009-0.028c0.136,1.284,0.196,2.574,0.248,3.864
			c0.141,3.542-0.093,7.095-0.511,10.612c0.645-5.424-0.052-0.074-0.296,1.202c-0.269,1.405-0.596,2.798-0.947,4.184
			c-0.439,1.732-0.959,3.442-1.573,5.119c-2.585,7.062-5.169,14.124-7.754,21.185c-10.634,29.053-21.268,58.106-31.901,87.159
			c-4.241,11.587-8.482,23.175-12.723,34.762c-1.019,2.783-2.037,5.566-3.056,8.349c-0.547,1.494-1.29,1.541,0.405-1.311
			c-1.433,2.412-3.038,4.719-4.684,6.988c-2.693,3.711,1.791-2.176-1.093,1.376c-1.17,1.442-2.404,2.831-3.644,4.212
			c-3.653,4.07-7.646,7.828-11.769,11.415c-1.986,1.729-4.039,3.38-6.109,5.007c2.653-2.085-0.681,0.471-1.029,0.728
			c-1.321,0.976-2.665,1.92-4.012,2.86c-6.833,4.766-14.019,9.038-21.404,12.887c-2.024,1.055-4.073,2.063-6.141,3.029
			c-2.076,0.969-4.421,1.47,1.466-0.568c-2.593,0.897-5.185,1.795-7.778,2.692c-27.422,9.492-54.845,18.985-82.267,28.477
			c-4.014,1.389-8.027,2.779-12.041,4.168c-0.601,0.208-1.202,0.416-1.802,0.624c-0.158,0.055-3.169,0.501-0.489,0.146
			c-1.43,0.19-2.869,0.299-4.307,0.407c-3.143,0.236-6.299,0.178-9.442-0.014c-0.593-0.036-4.842-0.553-1.03-0.017
			c-1.203-0.169-2.395-0.408-3.586-0.646c-2.277-0.457-4.511-1.106-6.72-1.819c-1.059-0.342-2.099-0.742-3.137-1.141
			c3.697,1.422,0.331,0.115-0.371-0.214c-2.174-1.018-4.26-2.216-6.301-3.477c-1.652-1.02-3.232-2.151-4.785-3.313
			c3.738,2.797-0.993-0.96-1.844-1.729c-2.558-2.313-4.906-4.854-7.108-7.506c-2.377-2.863,2.15,2.98-0.461-0.602
			c-0.642-0.881-1.254-1.784-1.853-2.695c-0.827-1.256-1.604-2.547-2.319-3.87c-0.627-1.16-1.331-2.273-2.018-3.4
			c-5.961-9.78-11.923-19.561-17.884-29.341c-14.298-23.458-28.596-46.916-42.894-70.373c-0.461-0.757-0.923-1.514-1.384-2.271
			c-0.199-0.326-0.33-0.703,0.169,0.519c-1.353-3.311-2.271-6.788-3.045-10.273c-0.33-1.486-0.567-2.991-0.805-4.493
			c0.477,3.01-0.121-1.86-0.133-2.009c-0.25-2.944-0.286-5.903-0.265-8.855c0.019-2.824,0.204-5.645,0.434-8.458
			c0.109-1.336,0.262-2.669,0.414-4c0.223-1.783,0.214-1.722-0.026,0.183c0.12-0.805,0.247-1.609,0.381-2.412
			c1.194-7.353,3.042-14.513,5.561-21.506c8.61-23.899,17.219-47.798,25.829-71.697c9.361-25.986,18.723-51.971,28.084-77.957
			c0.856-2.376,1.712-4.753,2.568-7.129c0.062-0.171,0.123-0.342,0.185-0.513c-2.37,6.577,2.292-1.974,0.159,0.768
			c1.59-2.045,3.427-3.883,5.335-5.628c3.012-2.753-2.446,1.666,0.77-0.681c1.258-0.918,2.598-1.718,3.944-2.499
			c0.98-0.568,2-1.062,3.018-1.555c3.414-1.654-3.011,1.137,0.48-0.173c1.977-0.742,4.022-1.294,6.073-1.787
			c0.985-0.237,1.983-0.419,2.98-0.602c3.475-0.637-3.552,0.389-0.123-0.008c2.098-0.243,4.211-0.332,6.321-0.366
			c2.947-0.047,5.897,0.147,8.823,0.484c2.569,0.296-4.19-0.596-1.81-0.237c0.444,0.067,0.887,0.144,1.329,0.222
			c0.655,0.115,1.308,0.248,1.957,0.395c0.105,0.024,0.211,0.049,0.316,0.076c7.922,1.998,16.25-2.472,18.452-10.477
			C156.93,17.237,152.246,8.535,144.321,6.536z"/>
	</g>
</g>
<g>
	<g>
		<path d="M106.774,128.658c1.987-1.4,4.149-2.572,6.294-3.704c1.017-0.537,2.049-1.042,3.085-1.541
			c1.054-0.508,6.275-2.721,1.686-0.819c3.395-1.407,6.877-2.593,10.393-3.656c4.193-1.267,8.473-2.225,12.782-3.004
			c0.853-0.149,1.707-0.289,2.563-0.419c-3.58,0.565,0.888-0.097,1.349-0.148c2.827-0.312,5.667-0.468,8.508-0.572
			c12.711-0.467,21.349,0.877,33.619,4.318c7.869,2.207,16.293-2.627,18.452-10.477c2.176-7.91-2.609-16.245-10.477-18.452
			c-24.076-6.752-49.575-7.264-73.704-0.486c-10.138,2.848-20.997,6.928-29.691,13.055c-6.669,4.7-9.779,13.016-5.381,20.523
			C90.119,129.879,100.079,133.377,106.774,128.658L106.774,128.658z"/>
	</g>
</g>
<g>
	<g>
		<path d="M111.818,178.915c1.999-1.398,4.174-2.565,6.345-3.667c1.124-0.571,2.27-1.097,3.423-1.607
			c-5.116,2.264-0.12,0.104,1.128-0.341c3.094-1.104,6.283-1.913,9.514-2.495c3.184-0.574-3.762,0.419-0.506,0.058
			c0.893-0.099,1.791-0.149,2.688-0.198c1.843-0.101,3.689-0.036,5.528,0.092c3.393,0.237-3.619-0.61-0.222-0.055
			c0.959,0.157,1.905,0.384,2.849,0.611c1.173,0.282,7.018,2.614,3.086,0.856c1.986,0.887,3.85,2.021,5.661,3.218
			c3.203,2.118-2.391-2.052,0.666,0.484c0.951,0.788,1.837,1.652,2.722,2.511c0.936,0.909,1.8,1.889,2.664,2.865
			c2.925,3.306-1.627-2.376,1.097,1.365c1.829,2.512,3.392,5.21,4.883,7.931c3.923,7.162,13.619,9.425,20.523,5.381
			c7.195-4.214,9.31-13.35,5.381-20.523c-11.663-21.296-32.355-36.874-57.527-34.539c-12.15,1.127-24.951,5.09-35.046,12.148
			c-6.687,4.675-9.767,13.036-5.381,20.523C95.174,180.157,105.105,183.609,111.818,178.915L111.818,178.915z"/>
	</g>
</g>
<g>
	<g>
		<path d="M68.72,227.127c12.721,14.192,28.71,26.101,44.439,36.652c35.636,23.905,76.408,38.991,118.974,44.113
			c17.251,2.076,34.712,2.034,51.985,0.267c-3.536-8.536-7.071-17.071-10.607-25.607c-1.92,1.905-3.935,3.719-5.954,5.518
			c-2.284,2.034-4.61,4.019-6.964,5.971c-1.373,1.138-2.76,2.26-4.155,3.372c-0.749,0.597-1.504,1.189-2.259,1.778
			c-1.821,1.421,3.314-2.552,1.465-1.131c-0.538,0.414-1.079,0.824-1.62,1.234c-7.664,5.803-15.648,11.188-23.934,16.064
			c-4.568,2.689-9.247,5.189-14.017,7.501c-2.334,1.131-4.698,2.198-7.082,3.22c5.213-2.236,0.59-0.269-0.634,0.214
			c-1.414,0.558-2.841,1.084-4.272,1.597c-5.094,1.824-10.306,3.312-15.597,4.443c-1.261,0.27-2.529,0.505-3.798,0.727
			c-1.363,0.239-6.347,0.875-0.459,0.123c-2.747,0.351-5.511,0.55-8.278,0.64c-2.545,0.083-5.092,0.018-7.632-0.146
			c-1.27-0.082-2.537-0.213-3.801-0.361c5.987,0.7,0.391,0.014-1.055-0.262c-2.533-0.485-5.029-1.147-7.489-1.918
			c-1.248-0.391-2.478-0.838-3.701-1.302c-1.045-0.397-3.513-1.471,1.135,0.511c-0.82-0.35-1.627-0.728-2.431-1.11
			c-2.479-1.177-4.863-2.544-7.18-4.011c-1.2-0.76-2.365-1.574-3.518-2.404c-0.856-0.617-3.063-2.368,0.72,0.589
			c-0.778-0.609-1.536-1.244-2.29-1.882c-2.365-2.001-4.58-4.173-6.705-6.424c-1.122-1.188-2.195-2.421-3.252-3.666
			c-0.544-0.641-1.071-1.296-1.599-1.95c-1.62-2.011,2.184,2.936-0.277-0.392c-4.761-6.439-8.731-13.44-12.237-20.628
			c-0.943-1.933-1.828-3.893-2.697-5.86c-1.534-3.473,1.244,3.037-0.23-0.528c-0.438-1.059-0.857-2.126-1.276-3.193
			c-1.93-4.912-3.629-9.912-5.212-14.946c-5.271-16.762-8.763-34.059-11.438-51.406c-1.248-8.093-11.267-12.453-18.452-10.477
			c-8.557,2.354-11.722,10.378-10.477,18.452c6.172,40.024,16.9,82.854,44.298,114.013c17.45,19.846,42.968,30.652,69.343,29.19
			c41.399-2.295,79.56-27.295,109.8-54.012c2.182-1.928,4.355-3.88,6.422-5.932c8.61-8.547,2.891-26.987-10.607-25.607
			c-12.912,1.32-25.864,1.634-38.822,0.898c-2.946-0.167-5.887-0.419-8.825-0.698c-1.448-0.138-2.893-0.303-4.338-0.467
			c-0.277-0.032-5.002-0.661-1.718-0.204c-6.014-0.837-11.986-1.961-17.916-3.259c-10.748-2.353-21.305-5.538-31.634-9.316
			c-2.354-0.861-4.689-1.774-7.016-2.704c-0.501-0.2-4.339-1.793-0.966-0.37c-1.119-0.472-2.232-0.961-3.344-1.449
			c-4.669-2.048-9.263-4.265-13.805-6.58c-14.816-7.551-28.898-16.549-42.106-26.645c4.037,3.085-0.464-0.383-1.385-1.117
			c-1.172-0.935-2.331-1.884-3.487-2.839c-2.227-1.84-4.416-3.726-6.578-5.642c-3.001-2.661-5.93-5.405-8.77-8.238
			c-1.182-1.179-2.36-2.371-3.475-3.615c-5.46-6.091-15.67-5.543-21.213,0C62.705,211.928,63.267,221.044,68.72,227.127z"/>
	</g>
</g>
<g>
	<g>
		<path d="M345.335,195.645c-2.575-10.326-7.949-20.456-13.697-29.326c-13.519-20.864-33.01-37.493-55.49-48.018
			c-7.405-3.467-16.115-2.144-20.523,5.381c-3.846,6.565-2.023,17.056,5.381,20.523c5.649,2.645,11.088,5.631,16.33,9.013
			c2.408,1.554,4.732,3.235,7.022,4.957c-2.464-1.852,1.042,0.904,1.246,1.073c1.357,1.123,2.669,2.299,3.974,3.482
			c3.631,3.293,6.997,6.871,10.177,10.597c0.737,0.863,1.448,1.748,2.158,2.633c-2.41-3.001-0.113-0.132,0.306,0.433
			c1.42,1.914,2.753,3.891,4.048,5.89c1.935,2.986,3.691,6.087,5.326,9.247c0.691,1.336,1.339,2.693,1.971,4.057
			c0.284,0.614,0.556,1.233,0.828,1.853c1.035,2.361-1.637-4.004-0.351-0.789c0.906,2.266,1.773,4.595,2.364,6.968
			c1.978,7.931,10.717,12.604,18.452,10.477C342.879,211.891,347.311,203.573,345.335,195.645L345.335,195.645z"/>
	</g>
</g>
<g>
	<g>
		<path d="M308.676,230.393c-2.94-11.603-9.497-22.687-17.42-31.533c-17.056-19.041-43.647-21.785-66.686-13.148
			c-7.649,2.867-12.793,10.03-10.477,18.452c2.021,7.347,10.788,13.35,18.452,10.477c2.624-0.984,5.269-1.851,7.974-2.585
			c1.238-0.336,2.494-0.597,3.75-0.857c0.802-0.157,1.606-0.297,2.414-0.42c-2.025,0.261-2.19,0.302-0.494,0.122
			c2.174-0.208,4.362-0.198,6.541-0.101c0.918,0.041,4.481,0.52,0.051-0.111c1.278,0.182,2.537,0.472,3.789,0.778
			c1.215,0.297,6.966,2.538,2.467,0.596c1.863,0.805,3.629,1.819,5.342,2.902c0.713,0.451,1.398,0.947,2.081,1.442
			c-3.839-2.777-0.649-0.451,0.166,0.267c1.403,1.236,2.696,2.594,3.943,3.986c0.519,0.58,1.012,1.183,1.505,1.786
			c-2.954-3.612-1.126-1.469-0.505-0.618c0.997,1.366,1.907,2.794,2.784,4.238c1.527,2.514,2.844,5.155,4.027,7.847
			c-2.473-5.626,0.146,0.536,0.695,2.2c0.245,0.744,0.48,1.495,0.673,2.254c2.008,7.923,10.694,12.61,18.452,10.477
			C306.198,246.645,310.683,238.314,308.676,230.393L308.676,230.393z"/>
	</g>
</g>
<g>
	<g>
		<path d="M415.821,221.464c11.614-4.478,23.227-8.955,34.841-13.433c2.659-1.025,5.296-2.249,8.066-2.944
			c0.894-0.225,1.796-0.413,2.7-0.594c1.291-0.259,6.146-0.914,0.616-0.197c3.826-0.496,7.69-0.603,11.54-0.421
			c1.011,0.048,2.019,0.148,3.026,0.248c-4.321-0.432-0.727-0.076,0.162,0.084c2.154,0.389,4.261,0.989,6.338,1.671
			c0.685,0.225,4.096,1.75,0.622,0.183c1.062,0.479,2.08,1.049,3.096,1.619c1.044,0.586,2.031,1.266,3.016,1.945
			c-2.909-2.006,1.201,1.174,1.736,1.689c0.953,0.918,1.81,1.93,2.665,2.937c-1.193-1.406-0.481-0.824-1.364-3.234
			c0.052,0.142,0.104,0.284,0.156,0.426c0.314,0.857,0.628,1.714,0.942,2.572c3.279,8.947,6.557,17.894,9.836,26.841
			c10.818,29.519,21.635,59.038,32.453,88.557c4.103,11.197,8.207,22.394,12.31,33.591c0.974,2.657,1.947,5.314,2.921,7.971
			c0.124,0.337,0.247,0.675,0.371,1.012c0.504,1.194,1.008,2.389,1.512,3.583c-1.482-3.532-1.957-4.657-1.425-3.376
			c0.084,0.203,0.164,0.407,0.245,0.612c0.378,0.961,0.718,1.937,1.051,2.914c1.046,3.071,1.886,6.209,2.635,9.364
			c0.511,2.151,0.929,4.322,1.318,6.497c0.217,1.212,0.396,2.431,0.576,3.649c-0.553-3.749,0.159,1.978,0.22,2.633
			c1.309,14.232,0.123,25.498-3.662,38.737c-0.374,1.309-3.367,7.844-1.005,3.907c-0.123,0.205-0.247,0.411-0.37,0.616
			c-0.653,1.089-1.307,2.178-1.96,3.267c-2.486,4.144-4.972,8.287-7.459,12.431c-15.568,25.946-31.136,51.893-46.704,77.839
			c-3.182,5.304-6.27,10.68-9.555,15.921c-0.818,1.304-3.159,4.261,0.677-0.701c-1.196,1.547-2.515,2.993-3.886,4.386
			c-0.833,0.846-1.706,1.652-2.59,2.443c-0.942,0.844-4.907,3.895-0.654,0.663c-2.775,2.109-5.765,3.918-8.851,5.532
			c-0.798,0.417-1.612,0.801-2.426,1.184c-3.016,1.42,3.29-1.307,0.117-0.029c-1.867,0.752-3.782,1.377-5.706,1.961
			c-2.081,0.631-4.202,1.118-6.329,1.559c-1.128,0.234-2.266,0.416-3.404,0.598c4.094-0.656-1.267,0.085-2.047,0.151
			c-5.453,0.457-10.943,0.26-16.383-0.239c-0.087-0.008-4.955-0.66-2.088-0.236c-1.595-0.236-3.18-0.537-4.763-0.836
			c-2.199-0.416-4.625-0.757-6.733-1.517c-8.375-3.021-16.751-6.043-25.126-9.064c-25.36-9.149-50.719-18.297-76.079-27.446
			c-1.708-0.616-3.784-1.625,2.216,1.015c-0.778-0.343-1.535-0.735-2.289-1.129c-4.288-2.241-8.329-4.951-12.215-7.824
			c-0.772-0.57-3.148-2.457,0.376,0.305c-0.704-0.552-1.396-1.119-2.089-1.687c-1.494-1.224-2.945-2.499-4.382-3.789
			c-3.576-3.211-6.933-6.657-10.152-10.223c-1.672-1.852-3.27-3.769-4.844-5.705c-2.723-3.349,1.776,2.398-0.892-1.132
			c-0.826-1.093-1.623-2.208-2.419-3.323c-3.749-5.248-7.089-10.777-10.178-16.435c-5.377-9.852-8.65-19.007-12.889-29.978
			c-3.487-9.024-6.973-18.048-10.46-27.072c-2.944-7.62-9.97-12.81-18.452-10.477c-7.288,2.005-13.427,10.815-10.477,18.452
			c11.25,29.119,20.75,59.871,39.779,85.044c14.377,19.019,32.425,36.043,55.113,44.228c26.947,9.721,53.893,19.442,80.84,29.163
			c9.99,3.604,19.096,7.021,29.688,8.587c21.803,3.224,44.297,1.166,63.556-10.275c15.62-9.279,23.322-22.632,32.277-37.557
			c15.568-25.946,31.136-51.893,46.704-77.839c4.95-8.25,9.906-15.715,12.882-24.923c7.764-24.021,7.545-51.223,0.505-75.4
			c-0.608-2.088-1.299-4.156-2.083-6.185c-0.568-1.469-1.227-2.962-1.834-4.379c2.551,5.961,1.859,4.535,1.374,3.211
			c-0.79-2.156-1.58-4.311-2.37-6.467c-3.865-10.546-7.729-21.091-11.594-31.637c-10.855-29.622-21.711-59.244-32.566-88.867
			c-3.555-9.702-7.111-19.404-10.666-29.105c-0.558-1.523-1.116-3.046-1.674-4.568c-4.629-12.632-17.697-21.066-29.659-25.692
			c-28.92-11.185-57.955,5.053-84.295,15.209c-7.622,2.939-12.808,9.975-10.477,18.452
			C399.375,218.28,408.182,224.409,415.821,221.464L415.821,221.464z"/>
	</g>
</g>
<g>
	<g>
		<path d="M494.573,278.992c-9.158-5.175-19.891-8.338-30.159-10.308c-24.762-4.752-50.404-2.267-73.88,6.902
			c-7.609,2.972-12.816,9.948-10.477,18.452c1.999,7.267,10.825,13.455,18.452,10.477c10.524-4.11,22.734-7.162,31.807-7.939
			c4.916-0.421,9.86-0.433,14.785-0.221c2.248,0.097,4.491,0.3,6.729,0.53c4.306,0.442-3.1-0.491,1.047,0.124
			c1.191,0.176,2.377,0.391,3.562,0.606c6.543,1.185,12.979,3.028,19.177,5.43c3.594,1.393-3.322-1.475-0.165-0.087
			c0.697,0.306,1.386,0.63,2.072,0.96c0.644,0.31,1.285,0.629,1.907,0.981c7.121,4.024,16.349,1.744,20.523-5.381
			C504.04,292.54,501.681,283.009,494.573,278.992L494.573,278.992z"/>
	</g>
</g>
<g>
	<g>
		<path d="M402.49,355.73c9.447,7.921,21.076,13.924,33.185,16.345c10.32,2.063,21.249,1.817,31.13-2.058
			c13.982-5.483,24.246-15.596,32.507-27.947c4.552-6.805,1.349-16.58-5.381-20.523c-7.377-4.321-15.987-1.401-20.523,5.381
			c-2.834,4.237-5.105,6.948-9.699,10.941c-1.354,1.11-1.381,1.136-0.08,0.079c-1.006,0.739-2.072,1.391-3.137,2.041
			c-1.016,0.62-2.083,1.151-3.147,1.68c-3.48,1.729,2.946-1.071-0.612,0.206c-1.693,0.608-3.449,1.022-5.207,1.384
			c-3.584,0.738,3.465-0.319-0.119,0.025c-1.007,0.097-2.019,0.116-3.029,0.137c-1.644,0.033-3.287-0.09-4.921-0.246
			c4.86,0.465-1.308-0.333-2.554-0.63c-1.473-0.352-2.921-0.805-4.358-1.278c-0.831-0.274-1.649-0.585-2.466-0.895
			c-2.956-1.122,3.31,1.464,0.49,0.216c-2.468-1.092-4.849-2.379-7.167-3.758c-1.648-0.981-3.245-2.048-4.8-3.171
			c-2.701-1.951,3.366,2.757,1.101,0.858c-6.259-5.248-15.056-6.157-21.213,0C397.09,339.916,396.218,350.471,402.49,355.73
			L402.49,355.73z"/>
	</g>
</g>
<g>
	<g>
		<path d="M290.67,422.305c11.583,3.609,24.478,3.619,36.297,1.465c25.012-4.56,41.008-26.127,45.638-50.026
			c1.553-8.02-2.144-16.16-10.477-18.452c-7.416-2.04-16.896,2.444-18.452,10.477c-0.524,2.706-1.155,5.37-1.926,8.017
			c-0.353,1.213-0.777,2.404-1.202,3.593c-0.629,1.604-0.574,1.519,0.165-0.255c-0.309,0.699-0.634,1.392-0.974,2.077
			c-1.085,2.249-2.409,4.373-3.839,6.417c2.308-3.3,0.464-0.606-0.112,0.069c-0.818,0.959-1.713,1.849-2.618,2.724
			c-0.656,0.635-1.356,1.221-2.055,1.807c3.303-2.767,1.007-0.795,0.194-0.233c-1.638,1.131-3.397,2.075-5.186,2.941
			c-2.794,1.353,3.407-1.338,0.541-0.224c-1.007,0.391-2.038,0.715-3.07,1.03c-1.757,0.536-3.558,0.92-5.364,1.25
			c-1.103,0.201-4.052,0.516,0.969-0.1c-0.739,0.091-1.481,0.151-2.223,0.212c-1.659,0.136-3.326,0.169-4.99,0.166
			c-1.537-0.003-3.074-0.085-4.606-0.196c-1.509-0.109-6.901-0.859-0.64,0.022c-2.715-0.382-5.471-0.892-8.094-1.709
			c-7.806-2.432-16.339,2.796-18.452,10.477C277.971,411.935,282.871,419.875,290.67,422.305L290.67,422.305z"/>
	</g>
</g>
<g>
	<g>
		<path d="M508.363,439.913c-16.913-1.97-35.023,0.854-51.501,4.278c-40.683,8.452-77.921,29.017-109.329,55.84
			c8.536,3.536,17.071,7.071,25.607,10.607c0.093-3.238,0.378-6.476,0.69-9.698c0.152-1.566,0.325-3.13,0.511-4.693
			c0.103-0.87,0.214-1.738,0.328-2.607c-0.838,6.406-0.237,1.781-0.015,0.275c0.644-4.352,1.431-8.681,2.345-12.984
			c1.019-4.801,2.238-9.56,3.65-14.26c0.705-2.349,1.479-4.676,2.299-6.987c0.414-1.165,0.851-2.322,1.297-3.476
			c0.223-0.578,0.455-1.152,0.687-1.727c1.344-3.332-1.295,3.002-0.309,0.727c2.041-4.705,4.434-9.257,7.194-13.579
			c0.652-1.021,1.339-2.02,2.039-3.01c0.348-0.492,0.708-0.975,1.067-1.458c1.526-2.048-2.464,3.133-0.871,1.144
			c1.608-2.008,3.359-3.897,5.207-5.686c1.112-1.076,6.119-5.103,1.421-1.475c1.393-1.076,2.862-2.051,4.364-2.966
			c1.515-0.924,3.099-1.728,4.712-2.467c2.217-1.016-4.116,1.627-0.811,0.375c0.948-0.359,1.916-0.666,2.886-0.959
			c1.798-0.543,3.639-0.935,5.489-1.251c2.507-0.429-4.504,0.501-0.771,0.119c1.11-0.113,2.225-0.167,3.339-0.206
			c2.11-0.075,4.222,0.019,6.326,0.184c1.183,0.093,4.972,0.624-0.294-0.109c1.282,0.179,2.555,0.417,3.824,0.669
			c5.098,1.009,10.059,2.641,14.888,4.543c1.484,0.606,1.175,0.469-0.927-0.411c0.602,0.259,1.202,0.522,1.8,0.791
			c1.551,0.689,3.078,1.43,4.6,2.181c2.941,1.451,5.811,3.041,8.649,4.683c6.505,3.762,12.72,8.012,18.771,12.46
			c0.403,0.296,4.726,3.588,2.538,1.89c1.934,1.501,3.837,3.04,5.734,4.587c4.071,3.321,8.039,6.768,11.959,10.266
			c6.096,5.438,15.188,6.025,21.213,0c5.532-5.532,6.104-15.768,0-21.213c-16.899-15.075-35.092-29.571-55.58-39.484
			c-14.047-6.797-29.714-11.916-45.519-10.937c-25.832,1.6-45.499,18.702-56.794,41.135c-11.538,22.916-17.201,50.014-17.937,75.617
			c-0.151,5.243,2.969,10.339,7.429,12.952c6.165,3.612,13.001,2.076,18.177-2.345c15.672-13.384,33.102-24.593,51.769-33.464
			c1.863-0.885,3.748-1.726,5.634-2.56c1.666-0.717,1.861-0.805,0.584-0.263c1.364-0.57,2.739-1.113,4.114-1.656
			c3.946-1.558,7.951-2.963,11.981-4.289c7.585-2.496,15.326-4.505,23.142-6.128c3.227-0.671,6.476-1.237,9.732-1.749
			c0.951-0.15,5.76-0.792,1.025-0.173c1.567-0.205,3.138-0.379,4.709-0.545c4.711-0.497,9.445-0.785,14.18-0.89
			c4.227-0.094,8.536-0.104,12.745,0.386c8.14,0.948,15-7.541,15-15C523.363,446.021,516.482,440.859,508.363,439.913z"/>
	</g>
</g>
</svg>
